<svg width="158" height="330" viewBox="0 0 158 330" fill="none" xmlns="http://www.w3.org/2000/svg">
<circle cx="5.70718" cy="88.4617" r="5" transform="rotate(-8.81526 5.70718 88.4617)" fill="#DCE2EE"/>
<circle cx="14.9021" cy="147.753" r="5" transform="rotate(-8.81526 14.9021 147.753)" fill="#DCE2EE"/>
<circle cx="24.0971" cy="207.044" r="5" transform="rotate(-8.81526 24.0971 207.044)" fill="#DCE2EE"/>
<circle cx="33.292" cy="266.335" r="5" transform="rotate(-8.81526 33.292 266.335)" fill="#DCE2EE"/>
<circle cx="42.487" cy="325.627" r="5" transform="rotate(-8.81526 42.487 325.627)" fill="#DCE2EE"/>
<circle cx="64.9984" cy="79.2667" r="5" transform="rotate(-8.81526 64.9984 79.2667)" fill="#DCE2EE"/>
<circle cx="74.1934" cy="138.558" r="5" transform="rotate(-8.81526 74.1934 138.558)" fill="#DCE2EE"/>
<circle cx="83.3883" cy="197.849" r="5" transform="rotate(-8.81526 83.3883 197.849)" fill="#DCE2EE"/>
<circle cx="92.5833" cy="257.141" r="5" transform="rotate(-8.81526 92.5833 257.141)" fill="#DCE2EE"/>
<circle cx="101.778" cy="316.432" r="5" transform="rotate(-8.81526 101.778 316.432)" fill="#DCE2EE"/>
<circle cx="124.29" cy="70.0718" r="5" transform="rotate(-8.81526 124.29 70.0718)" fill="#DCE2EE"/>
<circle cx="133.485" cy="129.363" r="5" transform="rotate(-8.81526 133.485 129.363)" fill="#DCE2EE"/>
<circle cx="142.68" cy="188.654" r="5" transform="rotate(-8.81526 142.68 188.654)" fill="#DCE2EE"/>
<circle cx="151.875" cy="247.946" r="5" transform="rotate(-8.81526 151.875 247.946)" fill="#DCE2EE"/>
<circle cx="161.069" cy="307.237" r="5" transform="rotate(-8.81526 161.069 307.237)" fill="#DCE2EE"/>
</svg>
