<svg width="144" height="44" viewBox="0 0 144 44" fill="none" xmlns="http://www.w3.org/2000/svg">
<g clip-path="url(#clip0_49_8508)">
<path d="M43.213 27.6719V18.9251H39.9803V13.8566H43.3754L44.5064 9.07544H49.2741V13.8566H55.0124V18.9251H49.2741V26.9778C49.2741 28.7768 49.8812 28.9802 52.5067 28.9802H55.0124V34.0898C54.0418 34.2951 52.4661 34.4985 51.0528 34.4985C45.7592 34.4985 43.213 32.5371 43.213 27.6719Z" fill="#16144A"/>
<path d="M57.8428 34.4162V13.8564H63.4593V17.1671H63.701C64.7121 15.0825 66.5295 13.4478 69.3986 13.4478C73.6424 13.4478 75.2181 16.6352 75.2181 20.7632V22.6443H69.1976V21.5414C69.1976 19.3337 68.5112 18.6395 66.6107 18.6395C64.7102 18.6395 63.8634 19.2927 63.8634 21.5414V34.4162H57.8428Z" fill="#16144A"/>
<path d="M76.877 24.197C76.877 17.6168 80.7572 13.4478 87.1007 13.4478C93.4441 13.4478 96.7985 17.126 96.7985 22.4801C96.7985 23.624 96.6361 24.809 96.5162 25.5052H82.5746C82.6964 28.366 83.8275 29.51 87.1413 29.51C89.5657 29.51 90.6175 28.9781 90.6175 27.7109V27.4665H96.5974V27.8752C96.5974 32.2476 92.8795 34.823 87.0601 34.823C80.069 34.823 76.877 30.695 76.877 24.197ZM82.6152 21.7859H90.9809C91.1028 19.6603 89.7281 18.4753 86.8996 18.4753C84.0711 18.4753 82.8588 19.6192 82.6152 21.7859Z" fill="#16144A"/>
<path d="M99.2249 24.158C99.2249 17.66 102.498 13.4498 108.035 13.4498C111.146 13.4498 113.006 14.8402 113.936 16.5571H114.178V7.03394H120.198V34.4183H114.582V31.3932H114.379C113.329 33.6009 111.024 34.827 108.033 34.827C102.295 34.827 99.223 30.6169 99.223 24.1599L99.2249 24.158ZM109.731 29.5942C112.6 29.5942 114.176 28.5715 114.176 25.7927V22.4821C114.176 19.7034 112.6 18.6807 109.731 18.6807C106.216 18.6807 105.245 20.3976 105.245 24.158C105.245 27.9183 106.216 29.5942 109.731 29.5942Z" fill="#16144A"/>
<path d="M123.794 26.8955V13.8564H129.815V25.6694C129.815 28.5303 130.785 29.553 133.815 29.553C136.845 29.553 137.977 28.6124 137.977 25.5071V13.8584H143.998V34.4182H138.382V30.8221H138.179C137.048 33.1921 134.905 34.8269 131.35 34.8269C126.016 34.8269 123.792 31.2719 123.792 26.8975L123.794 26.8955Z" fill="#16144A"/>
<path d="M0 21.7214H20.2502C22.9647 21.7214 25.1668 19.4941 25.1668 16.7486C25.1668 14.0032 22.9647 11.7759 20.2502 11.7759H4.91658C2.20212 11.7759 0 14.0032 0 16.7486V21.7214Z" fill="#46AEE2"/>
<path d="M12.5825 10.3718C15.4142 10.3718 17.7098 8.05 17.7098 5.1859C17.7098 2.32181 15.4142 0 12.5825 0C9.75072 0 7.45514 2.32181 7.45514 5.1859C7.45514 8.05 9.75072 10.3718 12.5825 10.3718Z" fill="#FACB13"/>
<path d="M17.6324 23.1509H7.45514C7.45514 33.7182 15.1423 42.467 25.1668 44.0001V33.4699C20.8051 32.1147 17.6344 28.0063 17.6344 23.1528L17.6324 23.1509Z" fill="#374B9D"/>
</g>
<defs>
<clipPath id="clip0_49_8508">
<rect width="144" height="44" fill="white"/>
</clipPath>
</defs>
</svg>
