<svg width="102" height="102" viewBox="0 0 102 102" fill="none" xmlns="http://www.w3.org/2000/svg">
<path d="M79.9049 0.834229C77.9749 0.834229 5.45202 0.834229 6.16346 0.834229C3.24594 0.834229 0.880493 3.08309 0.880493 5.85681C0.880493 7.69131 0.880493 76.6397 0.880493 75.9637C0.880493 78.7374 3.24594 80.9863 6.16346 80.9863C8.09351 80.9863 80.6163 80.9863 79.9049 80.9863C82.8224 80.9863 85.1879 78.7374 85.1879 75.9637C85.1879 74.1292 85.1879 5.18086 85.1879 5.85681C85.1879 3.08309 82.8229 0.834229 79.9049 0.834229Z" fill="#F9CFCF"/>
<path d="M78.2135 76.9797H7.85534C6.33165 76.9797 5.09631 75.8052 5.09631 74.3567V7.46631C5.09631 6.01771 6.33165 4.84326 7.85534 4.84326H78.2135C79.7372 4.84326 80.9725 6.01771 80.9725 7.46631V74.3567C80.9725 75.8052 79.7372 76.9797 78.2135 76.9797Z" fill="#4671C6"/>
<path d="M20.2712 4.84326H35.4466V19.2706H20.2712V4.84326Z" fill="#E0EBFC"/>
<path d="M35.4465 4.84326H50.6219V19.2706H35.4465V4.84326Z" fill="#4671C6"/>
<path d="M50.6218 4.84326H65.7971V19.2706H50.6218V4.84326Z" fill="#E0EBFC"/>
<path d="M20.2712 19.2736H35.4466V33.7009H20.2712V19.2736Z" fill="#4671C6"/>
<path d="M35.4465 19.2736H50.6219V33.7009H35.4465V19.2736Z" fill="#E0EBFC"/>
<path d="M50.6218 19.2736H65.7971V33.7009H50.6218V19.2736Z" fill="#4671C6"/>
<path d="M20.2712 33.7037H35.4466V48.1311H20.2712V33.7037Z" fill="#E0EBFC"/>
<path d="M35.4465 33.7037H50.6219V48.1311H35.4465V33.7037Z" fill="#4671C6"/>
<path d="M50.6218 33.7037H65.7971V48.1311H50.6218V33.7037Z" fill="#E0EBFC"/>
<path d="M20.2712 48.1216H35.4466V62.5489H20.2712V48.1216Z" fill="#4671C6"/>
<path d="M35.4465 48.1216H50.6219V62.5489H35.4465V48.1216Z" fill="#E0EBFC"/>
<path d="M50.6218 48.1216H65.7971V62.5489H50.6218V48.1216Z" fill="#4671C6"/>
<path d="M20.2712 62.5518H35.4466V76.9791H20.2712V62.5518Z" fill="#E0EBFC"/>
<path d="M35.4465 62.5518H50.6219V76.9791H35.4465V62.5518Z" fill="#4671C6"/>
<path d="M50.6218 62.5518H65.7971V76.9791H50.6218V62.5518Z" fill="#E0EBFC"/>
<path d="M65.7971 19.2736H80.9725V33.7009H65.7971V19.2736Z" fill="#E0EBFC"/>
<path d="M65.7971 33.7037H80.9725V48.1311H65.7971V33.7037Z" fill="#4671C6"/>
<path d="M65.7971 48.1216H80.9725V62.5489H65.7971V48.1216Z" fill="#E0EBFC"/>
<path d="M5.09583 19.2736H20.2712V33.7009H5.09583V19.2736Z" fill="#E0EBFC"/>
<path d="M5.09583 33.7037H20.2712V48.1311H5.09583V33.7037Z" fill="#4671C6"/>
<path d="M5.09583 48.1216H20.2712V62.5489H5.09583V48.1216Z" fill="#E0EBFC"/>
<path d="M35.4464 20.1106H20.2711C19.7851 20.1106 19.3906 19.7356 19.3906 19.2735V4.84613C19.3906 4.38405 19.7851 4.00903 20.2711 4.00903H35.4464C35.9325 4.00903 36.3269 4.38405 36.3269 4.84613V19.2735C36.3269 19.736 35.9329 20.1106 35.4464 20.1106ZM21.1516 18.4364H34.566V5.68323H21.1516V18.4364Z" fill="#3762CC"/>
<path d="M50.6219 20.1106H35.4465C34.9605 20.1106 34.566 19.7356 34.566 19.2735V4.84613C34.566 4.38405 34.9605 4.00903 35.4465 4.00903H50.6219C51.1079 4.00903 51.5024 4.38405 51.5024 4.84613V19.2735C51.5024 19.736 51.1083 20.1106 50.6219 20.1106ZM36.327 18.4364H49.7414V5.68323H36.327V18.4364Z" fill="#3762CC"/>
<path d="M65.7972 20.1106H50.6218C50.1358 20.1106 49.7413 19.7356 49.7413 19.2735V4.84613C49.7413 4.38405 50.1358 4.00903 50.6218 4.00903H65.7972C66.2832 4.00903 66.6777 4.38405 66.6777 4.84613V19.2735C66.6777 19.736 66.2836 20.1106 65.7972 20.1106ZM51.5028 18.4364H64.9171V5.68323H51.5028V18.4364Z" fill="#3762CC"/>
<path d="M35.4464 34.5409H20.2711C19.7851 34.5409 19.3906 34.1659 19.3906 33.7038V19.2764C19.3906 18.8144 19.7851 18.4393 20.2711 18.4393H35.4464C35.9325 18.4393 36.3269 18.8144 36.3269 19.2764V33.7038C36.3269 34.1663 35.9329 34.5409 35.4464 34.5409ZM21.1516 32.8667H34.566V20.1135H21.1516V32.8667Z" fill="#3762CC"/>
<path d="M50.6219 34.5409H35.4465C34.9605 34.5409 34.566 34.1659 34.566 33.7038V19.2764C34.566 18.8144 34.9605 18.4393 35.4465 18.4393H50.6219C51.1079 18.4393 51.5024 18.8144 51.5024 19.2764V33.7038C51.5024 34.1663 51.1083 34.5409 50.6219 34.5409ZM36.327 32.8667H49.7414V20.1135H36.327V32.8667Z" fill="#3762CC"/>
<path d="M65.7972 34.5409H50.6218C50.1358 34.5409 49.7413 34.1659 49.7413 33.7038V19.2764C49.7413 18.8144 50.1358 18.4393 50.6218 18.4393H65.7972C66.2832 18.4393 66.6777 18.8144 66.6777 19.2764V33.7038C66.6777 34.1663 66.2836 34.5409 65.7972 34.5409ZM51.5028 32.8667H64.9171V20.1135H51.5028V32.8667Z" fill="#3762CC"/>
<path d="M35.4464 48.9587H20.2711C19.7851 48.9587 19.3906 48.5837 19.3906 48.1216V33.6943C19.3906 33.2322 19.7851 32.8572 20.2711 32.8572H35.4464C35.9325 32.8572 36.3269 33.2322 36.3269 33.6943V48.1216C36.3269 48.5841 35.9329 48.9587 35.4464 48.9587ZM21.1516 47.2845H34.566V34.5314H21.1516V47.2845Z" fill="#3762CC"/>
<path d="M50.6219 48.9587H35.4465C34.9605 48.9587 34.566 48.5837 34.566 48.1216V33.6943C34.566 33.2322 34.9605 32.8572 35.4465 32.8572H50.6219C51.1079 32.8572 51.5024 33.2322 51.5024 33.6943V48.1216C51.5024 48.5841 51.1083 48.9587 50.6219 48.9587ZM36.327 47.2845H49.7414V34.5314H36.327V47.2845Z" fill="#3762CC"/>
<path d="M65.7972 48.9587H50.6218C50.1358 48.9587 49.7413 48.5837 49.7413 48.1216V33.6943C49.7413 33.2322 50.1358 32.8572 50.6218 32.8572H65.7972C66.2832 32.8572 66.6777 33.2322 66.6777 33.6943V48.1216C66.6777 48.5841 66.2836 48.9587 65.7972 48.9587ZM51.5028 47.2845H64.9171V34.5314H51.5028V47.2845Z" fill="#3762CC"/>
<path d="M35.4464 63.3889H20.2711C19.7851 63.3889 19.3906 63.0139 19.3906 62.5518V48.1245C19.3906 47.6624 19.7851 47.2874 20.2711 47.2874H35.4464C35.9325 47.2874 36.3269 47.6624 36.3269 48.1245V62.5518C36.3269 63.0143 35.9329 63.3889 35.4464 63.3889ZM21.1516 61.7147H34.566V48.9615H21.1516V61.7147Z" fill="#3762CC"/>
<path d="M50.6219 63.3889H35.4465C34.9605 63.3889 34.566 63.0139 34.566 62.5518V48.1245C34.566 47.6624 34.9605 47.2874 35.4465 47.2874H50.6219C51.1079 47.2874 51.5024 47.6624 51.5024 48.1245V62.5518C51.5024 63.0143 51.1083 63.3889 50.6219 63.3889ZM36.327 61.7147H49.7414V48.9615H36.327V61.7147Z" fill="#3762CC"/>
<path d="M65.7972 63.3889H50.6218C50.1358 63.3889 49.7413 63.0139 49.7413 62.5518V48.1245C49.7413 47.6624 50.1358 47.2874 50.6218 47.2874H65.7972C66.2832 47.2874 66.6777 47.6624 66.6777 48.1245V62.5518C66.6777 63.0143 66.2836 63.3889 65.7972 63.3889ZM51.5028 61.7147H64.9171V48.9615H51.5028V61.7147Z" fill="#3762CC"/>
<path d="M35.4464 77.8191H20.2711C19.7851 77.8191 19.3906 77.4441 19.3906 76.982V62.5546C19.3906 62.0925 19.7851 61.7175 20.2711 61.7175H35.4464C35.9325 61.7175 36.3269 62.0925 36.3269 62.5546V76.982C36.3269 77.4445 35.9329 77.8191 35.4464 77.8191ZM21.1516 76.1449H34.566V63.3917H21.1516V76.1449Z" fill="#3762CC"/>
<path d="M50.6219 77.8191H35.4465C34.9605 77.8191 34.566 77.4441 34.566 76.982V62.5546C34.566 62.0925 34.9605 61.7175 35.4465 61.7175H50.6219C51.1079 61.7175 51.5024 62.0925 51.5024 62.5546V76.982C51.5024 77.4445 51.1083 77.8191 50.6219 77.8191ZM36.327 76.1449H49.7414V63.3917H36.327V76.1449Z" fill="#3762CC"/>
<path d="M65.7972 77.8191H50.6218C50.1358 77.8191 49.7413 77.4441 49.7413 76.982V62.5546C49.7413 62.0925 50.1358 61.7175 50.6218 61.7175H65.7972C66.2832 61.7175 66.6777 62.0925 66.6777 62.5546V76.982C66.6777 77.4445 66.2836 77.8191 65.7972 77.8191ZM51.5028 76.1449H64.9171V63.3917H51.5028V76.1449Z" fill="#3762CC"/>
<path d="M80.9724 34.5409H65.7971C65.3111 34.5409 64.9166 34.1659 64.9166 33.7038V19.2764C64.9166 18.8144 65.3111 18.4393 65.7971 18.4393H80.9724C81.4585 18.4393 81.8529 18.8144 81.8529 19.2764V33.7038C81.8529 34.1663 81.4589 34.5409 80.9724 34.5409ZM66.6776 32.8667H80.092V20.1135H66.6776V32.8667Z" fill="#3762CC"/>
<path d="M80.9724 48.9587H65.7971C65.3111 48.9587 64.9166 48.5837 64.9166 48.1216V33.6943C64.9166 33.2322 65.3111 32.8572 65.7971 32.8572H80.9724C81.4585 32.8572 81.8529 33.2322 81.8529 33.6943V48.1216C81.8529 48.5841 81.4589 48.9587 80.9724 48.9587ZM66.6776 47.2845H80.092V34.5314H66.6776V47.2845Z" fill="#3762CC"/>
<path d="M80.9724 63.3889H65.7971C65.3111 63.3889 64.9166 63.0139 64.9166 62.5518V48.1245C64.9166 47.6624 65.3111 47.2874 65.7971 47.2874H80.9724C81.4585 47.2874 81.8529 47.6624 81.8529 48.1245V62.5518C81.8529 63.0143 81.4589 63.3889 80.9724 63.3889ZM66.6776 61.7147H80.092V48.9615H66.6776V61.7147Z" fill="#3762CC"/>
<path d="M20.2712 34.5409H5.09583C4.60979 34.5409 4.21533 34.1659 4.21533 33.7038V19.2764C4.21533 18.8144 4.60979 18.4393 5.09583 18.4393H20.2712C20.7572 18.4393 21.1517 18.8144 21.1517 19.2764V33.7038C21.1517 34.1663 20.7576 34.5409 20.2712 34.5409ZM5.97632 32.8667H19.3907V20.1135H5.97632V32.8667Z" fill="#3762CC"/>
<path d="M20.2712 48.9587H5.09583C4.60979 48.9587 4.21533 48.5837 4.21533 48.1216V33.6943C4.21533 33.2322 4.60979 32.8572 5.09583 32.8572H20.2712C20.7572 32.8572 21.1517 33.2322 21.1517 33.6943V48.1216C21.1517 48.5841 20.7576 48.9587 20.2712 48.9587ZM5.97632 47.2845H19.3907V34.5314H5.97632V47.2845Z" fill="#3762CC"/>
<path d="M20.2712 63.3889H5.09583C4.60979 63.3889 4.21533 63.0139 4.21533 62.5518V48.1245C4.21533 47.6624 4.60979 47.2874 5.09583 47.2874H20.2712C20.7572 47.2874 21.1517 47.6624 21.1517 48.1245V62.5518C21.1517 63.0143 20.7576 63.3889 20.2712 63.3889ZM5.97632 61.7147H19.3907V48.9615H5.97632V61.7147Z" fill="#3762CC"/>
<path d="M78.2135 77.8196H7.85535C5.84826 77.8196 4.21582 76.2677 4.21582 74.3595V7.46917C4.21582 5.56101 5.84826 4.00903 7.85535 4.00903H78.2139C80.221 4.00903 81.8535 5.56101 81.8535 7.46917V74.3595C81.853 76.2677 80.2206 77.8196 78.2135 77.8196ZM7.85535 5.68281C6.81944 5.68281 5.97681 6.48391 5.97681 7.46875V74.3591C5.97681 75.3439 6.81944 76.145 7.85535 76.145H78.2139C79.2498 76.145 80.0925 75.3439 80.0925 74.3591V7.46917C80.0925 6.48433 79.2498 5.68323 78.2139 5.68323L7.85535 5.68281Z" fill="#3762CC"/>
<path d="M79.9102 81.8262H6.16346C2.76784 81.8262 0.00440247 79.202 0 75.9745C0 75.9737 0 75.9724 0 75.9716V5.85968C0 2.63142 2.76035 0.00418549 6.1551 0H6.15818H79.9049C83.301 0 86.064 2.6243 86.0684 5.85173V5.85466V75.9666C86.0684 79.1948 83.308 81.8221 79.9137 81.8262C79.9128 81.8262 79.9111 81.8262 79.9102 81.8262ZM1.76099 75.9666C1.76099 78.2744 3.73594 80.1521 6.16346 80.1521H79.9049C82.3324 80.1521 84.3074 78.2744 84.3074 75.9666V5.85968C84.3074 3.5518 82.3324 1.67419 79.9049 1.67419H6.16346C3.73594 1.67419 1.76099 3.5518 1.76099 5.85968V75.9666Z" fill="#3762CC"/>
<path d="M72.3199 54.6286H46.4919C44.9924 54.6286 43.7769 53.473 43.7769 52.0474C43.7769 50.6218 44.9924 49.4662 46.4919 49.4662H72.3199C73.8193 49.4662 75.0349 50.6218 75.0349 52.0474C75.0349 53.4734 73.8193 54.6286 72.3199 54.6286Z" fill="#E0EBFC"/>
<path d="M70.1922 59.7951H48.6201C47.8906 59.7951 47.2993 59.233 47.2993 58.5395V54.6332H71.5129V58.5395C71.5129 59.233 70.9217 59.7951 70.1922 59.7951Z" fill="#A4C9FF"/>
<path d="M41.2089 95.9941H77.6028C79.1023 95.9941 80.3178 97.1498 80.3178 98.5753C80.3178 100.001 79.1023 101.157 77.6028 101.157H41.2089C39.7094 101.157 38.4939 100.001 38.4939 98.5753C38.4943 97.1498 39.7099 95.9941 41.2089 95.9941Z" fill="#E0EBFC"/>
<path d="M44.5275 90.8395H74.2847C75.0142 90.8395 75.6055 91.4016 75.6055 92.0951V96.0014H43.2068V92.0951C43.2068 91.4016 43.798 90.8395 44.5275 90.8395Z" fill="#A4C9FF"/>
<path d="M68.9978 59.7877H49.814C49.5543 70.1702 48.6417 80.541 47.0792 90.8277H59.4061H71.7331C70.1715 80.5494 69.258 70.1782 68.9978 59.7877Z" fill="#E0EBFC"/>
<path d="M63.0077 41.4064L60.6022 36.519C60.1276 35.5542 58.6845 35.5542 58.2099 36.519L55.8044 41.4064C55.5363 41.9509 54.7702 42.0572 54.3498 41.6085L49.6061 36.5491C48.7987 35.6877 47.2997 36.231 47.2997 37.3845V49.4705H71.5133C71.5133 49.3211 71.5133 37.236 71.5133 37.3845C71.5133 36.2306 70.0142 35.6877 69.2068 36.5491L64.4632 41.6085C64.0418 42.0572 63.2758 41.9509 63.0077 41.4064Z" fill="#A4C9FF"/>
<path d="M72.3199 55.4687H46.4919C44.5094 55.4687 42.8964 53.9351 42.8964 52.0504C42.8964 50.1656 44.5094 48.6321 46.4919 48.6321H72.3199C74.3023 48.6321 75.9154 50.1656 75.9154 52.0504C75.9154 53.9351 74.3023 55.4687 72.3199 55.4687ZM46.4919 50.3063C45.4806 50.3063 44.6574 51.0885 44.6574 52.0504C44.6574 53.0122 45.4802 53.7945 46.4919 53.7945H72.3199C73.3315 53.7945 74.1544 53.0122 74.1544 52.0504C74.1544 51.089 73.3315 50.3063 72.3199 50.3063H46.4919Z" fill="#3762CC"/>
<path d="M70.1921 60.6352H48.6199C47.4062 60.6352 46.4187 59.6964 46.4187 58.5425V54.6362C46.4187 54.1741 46.8132 53.7991 47.2992 53.7991H71.5128C71.9988 53.7991 72.3933 54.1741 72.3933 54.6362V58.5425C72.3933 59.696 71.4058 60.6352 70.1921 60.6352ZM48.1797 55.4733V58.5425C48.1797 58.7731 48.3774 58.961 48.6199 58.961H70.1921C70.4351 58.961 70.6323 58.7731 70.6323 58.5425V55.4733H48.1797Z" fill="#3762CC"/>
<path d="M77.6028 101.996H41.2089C39.2265 101.996 37.6134 100.463 37.6134 98.5782C37.6134 96.6935 39.2265 95.1599 41.2089 95.1599H77.6028C79.5853 95.1599 81.1983 96.6935 81.1983 98.5782C81.1983 100.463 79.5853 101.996 77.6028 101.996ZM41.2089 96.8341C40.1977 96.8341 39.3744 97.6164 39.3744 98.5782C39.3744 99.5396 40.1972 100.322 41.2089 100.322H77.6028C78.6145 100.322 79.4373 99.54 79.4373 98.5782C79.4373 97.6164 78.6145 96.8341 77.6028 96.8341H41.2089Z" fill="#3762CC"/>
<path d="M75.6055 96.8291H43.2068C42.7208 96.8291 42.3263 96.4541 42.3263 95.992V92.0857C42.3263 90.9317 43.3138 89.9929 44.5275 89.9929H74.2847C75.4985 89.9929 76.486 90.9317 76.486 92.0857V95.992C76.486 96.4545 76.0915 96.8291 75.6055 96.8291ZM44.0873 95.1549H74.725V92.0857C74.725 91.855 74.5278 91.6671 74.2847 91.6671H44.5275C44.285 91.6671 44.0873 91.855 44.0873 92.0857V95.1549Z" fill="#3762CC"/>
<path d="M71.7329 91.6682H47.0791C46.8238 91.6682 46.5807 91.5627 46.4134 91.379C46.2462 91.1957 46.1709 90.9517 46.2074 90.7114C47.758 80.5034 48.675 70.0933 48.9334 59.771C48.9449 59.3165 49.3358 58.9536 49.8139 58.9536H68.9981C69.4762 58.9536 69.8672 59.3165 69.8782 59.771C70.1362 70.0933 71.0536 80.503 72.6042 90.7114C72.6407 90.9521 72.5655 91.1957 72.3982 91.379C72.2313 91.5627 71.9883 91.6682 71.7329 91.6682ZM48.0939 89.994H70.7177C69.2839 80.2962 68.417 70.426 68.1397 60.6278H50.6724C50.3946 70.4273 49.5278 80.2962 48.0939 89.994Z" fill="#3762CC"/>
<path d="M71.5128 50.3103H47.2992C46.8132 50.3103 46.4187 49.9353 46.4187 49.4732V37.3872C46.4187 36.5112 46.9752 35.7436 47.8363 35.4318C48.6979 35.1199 49.6501 35.3413 50.2634 35.9951L55.0071 41.0541L57.4126 36.1671C57.7784 35.4234 58.5422 34.9613 59.406 34.9613C60.2698 34.9613 61.0336 35.4234 61.3994 36.1671L63.8054 41.0545L63.8072 41.0575L68.5491 35.9951C69.1623 35.3413 70.1146 35.1199 70.9761 35.4318C71.8359 35.7432 72.392 36.5091 72.3937 37.3834V37.386V49.4732C72.3933 49.9357 71.9988 50.3103 71.5128 50.3103ZM48.1797 48.6361H70.6323V37.3872C70.6323 37.1269 70.4342 37.0273 70.3488 36.9959C70.2625 36.9649 70.0459 36.9138 69.8632 37.1085L65.12 42.1679C64.7251 42.5893 64.14 42.794 63.5505 42.7103C62.9632 42.6287 62.4618 42.2746 62.2104 41.7636L59.8044 36.8762C59.6974 36.6585 59.4901 36.6351 59.406 36.6351C59.3219 36.6351 59.1146 36.6585 59.0076 36.8762L56.6016 41.7636C56.3502 42.275 55.8488 42.6291 55.2611 42.7107C54.6738 42.7919 54.0869 42.5893 53.6925 42.1679L48.9484 37.1089C48.7661 36.9147 48.5486 36.9649 48.4632 36.9959C48.3778 37.0268 48.1797 37.1269 48.1797 37.3872V48.6361Z" fill="#3762CC"/>
<path d="M94.9098 70.8802H74.8569C73.6929 70.8802 72.749 69.9828 72.749 68.8762C72.749 67.7696 73.6929 66.8722 74.8569 66.8722H94.9098C96.0738 66.8722 97.0177 67.7696 97.0177 68.8762C97.0177 69.9833 96.0738 70.8802 94.9098 70.8802Z" fill="#A4C9FF"/>
<path d="M93.258 74.8888H76.5092C75.9431 74.8888 75.4839 74.4523 75.4839 73.914V70.8812H94.2833V73.914C94.2833 74.4523 93.8242 74.8888 93.258 74.8888Z" fill="#A4C9FF"/>
<path d="M70.7556 97.152H99.0116C100.176 97.152 101.119 98.0493 101.119 99.156C101.119 100.263 100.176 101.16 99.0116 101.16H70.7556C69.5916 101.16 68.6477 100.263 68.6477 99.156C68.6477 98.0493 69.5912 97.152 70.7556 97.152Z" fill="#A4C9FF"/>
<path d="M73.332 93.1429H96.4353C97.0014 93.1429 97.4606 93.5795 97.4606 94.1177V97.1506H72.3066V94.1177C72.3066 93.5791 72.7654 93.1429 73.332 93.1429Z" fill="#A4C9FF"/>
<path d="M91.9963 66.8767H77.6403V65.4035C77.6403 64.8049 78.1505 64.3198 78.7801 64.3198H90.8565C91.486 64.3198 91.9963 64.8049 91.9963 65.4035V66.8767Z" fill="#A4C9FF"/>
<path d="M77.6108 74.8904C77.2898 80.9999 76.6951 87.0902 75.8256 93.1408H93.9413C93.0714 87.0906 92.477 80.9999 92.1561 74.8904H77.6108Z" fill="#E0EBFC"/>
<path d="M91.9962 67.7171H77.6406C77.1546 67.7171 76.7601 67.3421 76.7601 66.88V65.4063C76.7601 64.3474 77.6666 63.4856 78.7804 63.4856H90.8569C91.9707 63.4856 92.8772 64.3474 92.8772 65.4063V66.88C92.8767 67.3421 92.4827 67.7171 91.9962 67.7171ZM78.5211 66.0429H91.1157V65.4063C91.1157 65.2703 90.9991 65.1598 90.8564 65.1598H78.78C78.6373 65.1598 78.5207 65.2703 78.5207 65.4063V66.0429H78.5211Z" fill="#3762CC"/>
<path d="M94.9099 71.7202H74.8571C73.2092 71.7202 71.8687 70.4457 71.8687 68.8791C71.8687 67.3124 73.2092 66.038 74.8571 66.038H94.9099C96.5577 66.038 97.8983 67.3124 97.8983 68.8791C97.8983 70.4457 96.5577 71.7202 94.9099 71.7202ZM74.8571 67.7126C74.1804 67.7126 73.6296 68.2358 73.6296 68.8795C73.6296 69.5232 74.1804 70.0464 74.8571 70.0464H94.9099C95.5865 70.0464 96.1373 69.5232 96.1373 68.8795C96.1373 68.2358 95.5865 67.7126 94.9099 67.7126H74.8571Z" fill="#3762CC"/>
<path d="M93.2577 75.7292H76.5093C75.4585 75.7292 74.6035 74.9164 74.6035 73.9173V70.8841C74.6035 70.422 74.998 70.047 75.484 70.047H94.283C94.7691 70.047 95.1635 70.422 95.1635 70.8841V73.9173C95.1635 74.9164 94.3085 75.7292 93.2577 75.7292ZM76.3645 71.7212V73.9173C76.3645 73.9935 76.4292 74.055 76.5093 74.055H93.2577C93.3378 74.055 93.4025 73.9935 93.4025 73.9173V71.7212H76.3645Z" fill="#3762CC"/>
<path d="M99.0116 102H70.7556C69.1078 102 67.7672 100.725 67.7672 99.1589C67.7672 97.5922 69.1078 96.3177 70.7556 96.3177H99.0116C100.659 96.3177 102 97.5922 102 99.1589C102 100.725 100.659 102 99.0116 102ZM70.7556 97.9919C70.0789 97.9919 69.5282 98.5151 69.5282 99.1589C69.5282 99.8022 70.0789 100.326 70.7556 100.326H99.0116C99.6882 100.326 100.239 99.8026 100.239 99.1589C100.239 98.5151 99.6882 97.9919 99.0116 97.9919H70.7556Z" fill="#3762CC"/>
<path d="M97.4607 97.9909H72.3063C71.8202 97.9909 71.4258 97.6159 71.4258 97.1538V94.121C71.4258 93.122 72.2807 92.3087 73.3316 92.3087H96.4354C97.4862 92.3087 98.3412 93.1215 98.3412 94.121V97.1538C98.3412 97.6163 97.9472 97.9909 97.4607 97.9909ZM73.1868 96.3167H96.5802V94.121C96.5802 94.0449 96.5155 93.9829 96.4354 93.9829H73.3316C73.2515 93.9829 73.1868 94.0449 73.1868 94.121V96.3167Z" fill="#3762CC"/>
<path d="M93.9413 93.9807H75.826C75.5715 93.9807 75.3298 93.8761 75.1625 93.694C74.9952 93.512 74.9191 93.27 74.9534 93.0302C75.8145 87.0404 76.4124 80.9245 76.7315 74.8514C76.7549 74.4061 77.1419 74.0562 77.6107 74.0562H92.1561C92.6249 74.0562 93.0119 74.4061 93.0352 74.8514C93.3544 80.9241 93.9523 87.0404 94.8134 93.0302C94.8477 93.27 94.7716 93.512 94.6043 93.694C94.437 93.8761 94.1957 93.9807 93.9413 93.9807ZM76.8328 92.3065H92.9344C92.175 86.8361 91.6326 81.2677 91.32 75.7303H78.4472C78.1346 81.2677 77.5918 86.8361 76.8328 92.3065Z" fill="#3762CC"/>
<path d="M90.9591 64.3249C95.7996 59.3149 92.0716 51.172 84.8832 51.172C77.7094 51.172 73.9646 59.2952 78.7981 64.3153C78.9755 64.3153 90.7825 64.3098 90.9591 64.3249Z" fill="#E0EBFC"/>
<path d="M90.9594 65.1649C90.944 65.1649 90.9286 65.1644 90.9128 65.1636C90.5984 65.1552 86.0291 65.1523 78.9614 65.1548H78.7989C78.5515 65.1548 78.316 65.056 78.1491 64.8832C75.671 62.3095 75.0524 58.7221 76.5352 55.5211C78.0157 52.3238 81.215 50.3378 84.884 50.3378C88.5557 50.3378 91.755 52.3259 93.2338 55.5257C94.7156 58.7326 94.0927 62.3225 91.6084 64.8941C91.4402 65.0673 91.2047 65.1649 90.9594 65.1649ZM83.6099 63.4798C88.1141 63.4798 89.8672 63.4835 90.5628 63.4873C92.3555 61.436 92.7658 58.6761 91.6207 56.1987C90.4272 53.6163 87.846 52.012 84.8831 52.012C81.9225 52.012 79.3409 53.615 78.1456 56.1958C77.0001 58.669 77.4077 61.4276 79.1982 63.4806C80.9042 63.4802 82.3623 63.4798 83.6099 63.4798Z" fill="#3762CC"/>
</svg>
