<svg width="102" height="102" viewBox="0 0 102 102" fill="none" xmlns="http://www.w3.org/2000/svg">
<path d="M73.6053 56.1847C71.4661 53.0783 67.0613 57.3727 62.3488 52.6588C59.6271 49.9363 65.1842 37.6108 61.56 33.9857C57.9358 30.3605 46.0967 27.2188 39.3314 33.9857C32.5662 40.7526 36.5791 47.1641 25.0415 46.6208C25.0307 46.6202 25.0205 46.6204 25.0098 46.62C18.1209 46.1983 11.4741 48.3481 6.62736 53.1958C-3.30345 63.1292 -1.91527 80.6231 9.72813 92.2693C21.3715 103.916 38.8607 105.304 48.7915 95.3709C53.6198 90.5414 55.7716 83.9248 55.3709 77.0618C56.0026 68.5453 58.5717 68.3151 63.9603 68.4702C72.2654 68.7095 75.7445 59.2911 73.6053 56.1847Z" fill="#E2A042"/>
<path d="M37.6626 55.8494L86.6056 11.4353C87.1764 10.9135 88.0566 10.9334 88.6036 11.4803L90.6468 13.524C91.1936 14.0709 91.2135 14.9515 90.6918 15.5225L46.2892 64.4784C45.7332 65.087 44.7819 65.1085 44.199 64.5256L37.6154 57.9403C37.0325 57.357 37.0539 56.4055 37.6626 55.8494Z" fill="#A36119"/>
<path d="M34.882 76.0907C34.1966 76.0907 33.5113 75.8291 32.9884 75.3061L26.6873 69.0033C25.6414 67.9573 25.6414 66.2614 26.6873 65.2152C27.7332 64.169 29.4287 64.169 30.4744 65.2152L36.7756 71.518C37.8215 72.5639 37.8215 74.2599 36.7756 75.3061C36.2525 75.8291 35.5672 76.0907 34.882 76.0907Z" fill="#FFE1AB"/>
<path d="M98.128 7.36769C97.9461 7.18586 97.6514 7.18586 97.4694 7.36769L50.2438 54.6055C50.0048 54.1836 49.7217 53.7803 49.3953 53.401L96.4432 6.3412C96.625 6.15917 96.625 5.86422 96.4432 5.68239C96.2612 5.50056 95.9665 5.50056 95.7845 5.68239L48.7469 52.7319C48.3783 52.3962 47.9844 52.1043 47.5721 51.8541L94.7583 4.6559C94.9401 4.47387 94.9401 4.17892 94.7583 3.99709C94.5763 3.81526 94.2817 3.81526 94.0997 3.99709L46.7055 51.4035C43.9262 50.1785 40.5622 50.7025 38.2854 52.9799C36.0086 55.2573 35.4846 58.622 36.7094 61.4021L23.803 74.3119L22.17 72.6786C21.1817 71.6901 19.5231 71.9196 18.84 73.139L17.0111 76.4041C16.5497 77.2278 16.6919 78.2581 17.3596 78.926L23.2187 84.7866C23.8862 85.4542 24.9162 85.5967 25.7399 85.1352L29.0042 83.3058C30.2235 82.6225 30.4527 80.9635 29.4644 79.975L27.8314 78.3415L40.7973 65.3723C43.5347 66.4809 46.7881 65.9252 49.0077 63.7049C51.2272 61.4847 51.7828 58.2302 50.6746 55.4923L98.128 8.0267C98.31 7.84467 98.31 7.54972 98.128 7.36769ZM37.16 62.2691C37.4099 62.6816 37.7019 63.0756 38.0376 63.4443L25.4877 75.9974L24.4614 74.9709L37.16 62.2691ZM27.1725 77.6827L26.1463 76.6562L38.7064 64.0928C39.0855 64.4193 39.4888 64.7022 39.9106 64.9415L27.1725 77.6827Z" fill="#2B3B47"/>
<path d="M82.936 11.3445L93.6775 0.600192C94.4776 -0.200064 95.7748 -0.200064 96.575 0.600192L101.4 5.42644C102.2 6.2267 102.2 7.52422 101.4 8.32468L90.6585 19.069C89.8585 19.8692 88.5613 19.8692 87.761 19.069L82.936 14.2427C82.136 13.4423 82.136 12.1447 82.936 11.3445Z" fill="#E2A042"/>
<path d="M92.6047 1.35223C93.1265 1.87421 92.9693 2.878 92.2534 3.59407C91.5375 4.31014 90.534 4.46766 90.0121 3.94547C89.4903 3.42329 89.6475 2.4197 90.3634 1.70363C91.0793 0.98756 92.0826 0.830242 92.6047 1.35223ZM87.2012 4.86648C86.4853 5.58255 86.3278 6.58634 86.8499 7.10832C87.3719 7.63031 88.3753 7.47299 89.0911 6.75692C89.807 6.04085 89.9645 5.03706 89.4425 4.51508C88.9208 3.99309 87.9173 4.15041 87.2012 4.86648ZM84.0394 8.02933C83.3235 8.7454 83.166 9.74919 83.688 10.2712C84.2099 10.7932 85.2134 10.6358 85.9293 9.91977C86.6452 9.2037 86.8027 8.19991 86.2806 7.67792C85.7588 7.15574 84.7552 7.31326 84.0394 8.02933ZM98.531 9.87356C97.8152 10.5896 97.6577 11.5934 98.1797 12.1154C98.7016 12.6374 99.7051 12.4801 100.421 11.764C101.137 11.0479 101.294 10.0441 100.772 9.52215C100.25 9.00016 99.2469 9.15748 98.531 9.87356ZM95.369 13.0364C94.6531 13.7525 94.4956 14.7563 95.0177 15.2782C95.5397 15.8002 96.5431 15.6429 97.259 14.9268C97.9749 14.2108 98.1323 13.207 97.6103 12.685C97.0884 12.1628 96.0851 12.3203 95.369 13.0364ZM92.207 16.1993C91.4911 16.9153 91.3336 17.9191 91.8557 18.4411C92.3775 18.9631 93.381 18.8058 94.0969 18.0897C94.8128 17.3736 94.9703 16.3698 94.4482 15.8478C93.9264 15.3257 92.9231 15.483 92.207 16.1993Z" fill="#A36119"/>
</svg>
