<svg width="41" height="40" viewBox="0 0 41 40" fill="none" xmlns="http://www.w3.org/2000/svg">
<path d="M19.158 13.8333L15.6997 10.3333C15.3664 10 15.1997 9.61111 15.1997 9.16667C15.1997 8.72222 15.3664 8.33333 15.6997 8L19.163 4.5C19.493 4.16667 19.8853 4 20.3397 4C20.7953 4 21.193 4.16667 21.533 4.5L24.9914 8C25.3247 8.33333 25.4914 8.72222 25.4914 9.16667C25.4914 9.61111 25.3247 10 24.9914 10.3333L21.528 13.8333C21.198 14.1667 20.8058 14.3333 20.3514 14.3333C19.8958 14.3333 19.498 14.1667 19.158 13.8333ZM3.65804 33.3333C3.18582 33.3333 2.79026 33.1733 2.47137 32.8533C2.15248 32.5333 1.99248 32.1378 1.99137 31.6667V26.6667C1.99137 25.7222 2.31804 24.9306 2.97137 24.2917C3.6247 23.6528 4.40915 23.3333 5.3247 23.3333H10.783C11.3386 23.3333 11.8664 23.4722 12.3664 23.75C12.8664 24.0278 13.2691 24.4028 13.5747 24.875C14.3803 25.9583 15.3736 26.8056 16.5547 27.4167C17.7358 28.0278 18.9925 28.3333 20.3247 28.3333C21.6858 28.3333 22.9569 28.0278 24.138 27.4167C25.3192 26.8056 26.298 25.9583 27.0747 24.875C27.4358 24.4028 27.8597 24.0278 28.3464 23.75C28.833 23.4722 29.3397 23.3333 29.8664 23.3333H35.3247C36.2691 23.3333 37.0608 23.6528 37.6997 24.2917C38.3386 24.9306 38.658 25.7222 38.658 26.6667V31.6667C38.658 32.1389 38.498 32.535 38.178 32.855C37.858 33.175 37.4625 33.3344 36.9914 33.3333H28.658C28.1858 33.3333 27.7903 33.1733 27.4714 32.8533C27.1525 32.5333 26.9925 32.1378 26.9914 31.6667V29.5417C26.0191 30.2361 24.9703 30.7639 23.8447 31.125C22.7192 31.4861 21.5458 31.6667 20.3247 31.6667C19.1303 31.6667 17.9636 31.4794 16.8247 31.105C15.6858 30.7306 14.6303 30.1956 13.658 29.5V31.6667C13.658 32.1389 13.498 32.535 13.178 32.855C12.858 33.175 12.4625 33.3344 11.9914 33.3333H3.65804ZM6.99137 21.6667C5.60248 21.6667 4.42193 21.1806 3.4497 20.2083C2.47748 19.2361 1.99137 18.0556 1.99137 16.6667C1.99137 15.25 2.47748 14.0628 3.4497 13.105C4.42193 12.1472 5.60248 11.6678 6.99137 11.6667C8.40804 11.6667 9.59582 12.1461 10.5547 13.105C11.5136 14.0639 11.9925 15.2511 11.9914 16.6667C11.9914 18.0556 11.5125 19.2361 10.5547 20.2083C9.59693 21.1806 8.40915 21.6667 6.99137 21.6667ZM33.658 21.6667C32.2691 21.6667 31.0886 21.1806 30.1164 20.2083C29.1441 19.2361 28.658 18.0556 28.658 16.6667C28.658 15.25 29.1441 14.0628 30.1164 13.105C31.0886 12.1472 32.2691 11.6678 33.658 11.6667C35.0747 11.6667 36.2625 12.1461 37.2214 13.105C38.1803 14.0639 38.6591 15.2511 38.658 16.6667C38.658 18.0556 38.1791 19.2361 37.2214 20.2083C36.2636 21.1806 35.0758 21.6667 33.658 21.6667Z" fill="#0079E9"/>
</svg>
