<svg width="40" height="40" viewBox="0 0 40 40" fill="none" xmlns="http://www.w3.org/2000/svg">
<path d="M8.33334 21.9667V26.65C8.33334 27.8667 9 29 10.0667 29.5833L18.4 34.1333C19.4 34.6833 20.6 34.6833 21.6 34.1333L29.9333 29.5833C31 29 31.6667 27.8667 31.6667 26.65V21.9667L21.6 27.4667C20.6 28.0167 19.4 28.0167 18.4 27.4667L8.33334 21.9667ZM18.4 5.86667L4.35 13.5333C3.2 14.1667 3.2 15.8333 4.35 16.4667L18.4 24.1333C19.4 24.6833 20.6 24.6833 21.6 24.1333L35 16.8167V26.6667C35 27.5833 35.75 28.3333 36.6667 28.3333C37.5833 28.3333 38.3333 27.5833 38.3333 26.6667V15.9833C38.3333 15.3667 38 14.8167 37.4667 14.5167L21.6 5.86667C21.1076 5.60405 20.5581 5.46667 20 5.46667C19.4419 5.46667 18.8924 5.60405 18.4 5.86667Z" fill="#0079E9"/>
</svg>
