<svg width="29" height="28" viewBox="0 0 29 28" fill="none" xmlns="http://www.w3.org/2000/svg">
<path d="M13.6628 4.02907C13.9317 3.48431 14.0661 3.21193 14.2486 3.1249C14.4074 3.04919 14.5919 3.04919 14.7507 3.1249C14.9333 3.21193 15.0677 3.48431 15.3366 4.02907L17.8877 9.19737C17.9671 9.35819 18.0068 9.43861 18.0648 9.50104C18.1162 9.55632 18.1778 9.60111 18.2462 9.63293C18.3235 9.66886 18.4122 9.68183 18.5897 9.70777L24.2962 10.5419C24.8971 10.6297 25.1975 10.6736 25.3366 10.8204C25.4576 10.9481 25.5145 11.1235 25.4914 11.2979C25.465 11.4984 25.2474 11.7102 24.8124 12.134L20.6847 16.1544C20.556 16.2797 20.4917 16.3423 20.4502 16.4169C20.4134 16.4829 20.3898 16.5555 20.3807 16.6305C20.3705 16.7152 20.3856 16.8037 20.416 16.9807L21.39 22.6593C21.4927 23.2583 21.544 23.5577 21.4475 23.7355C21.3635 23.8901 21.2143 23.9985 21.0412 24.0306C20.8424 24.0674 20.5735 23.926 20.0356 23.6432L14.9341 20.9603C14.7752 20.8767 14.6957 20.835 14.612 20.8185C14.5378 20.804 14.4616 20.804 14.3874 20.8185C14.3037 20.835 14.2242 20.8767 14.0653 20.9603L8.96375 23.6432C8.42591 23.926 8.15699 24.0674 7.95814 24.0306C7.78514 23.9985 7.63585 23.8901 7.55187 23.7355C7.45534 23.5577 7.5067 23.2583 7.60943 22.6593L8.58337 16.9807C8.61374 16.8037 8.62892 16.7152 8.61865 16.6305C8.60955 16.5555 8.58597 16.4829 8.54921 16.4169C8.5077 16.3423 8.44336 16.2797 8.31469 16.1544L4.18699 12.134C3.75195 11.7102 3.53442 11.4984 3.50796 11.2979C3.48492 11.1235 3.54182 10.9481 3.6628 10.8204C3.80185 10.6736 4.10231 10.6297 4.70323 10.5419L10.4097 9.70777C10.5872 9.68183 10.6759 9.66886 10.7532 9.63293C10.8216 9.60111 10.8832 9.55632 10.9346 9.50104C10.9926 9.43861 11.0323 9.35819 11.1116 9.19737L13.6628 4.02907Z" fill="#FFB13A"/>
</svg>
