<svg width="40" height="40" viewBox="0 0 40 40" fill="none" xmlns="http://www.w3.org/2000/svg">
<path d="M36.0828 34.375C35.9731 34.565 35.8152 34.7229 35.6252 34.8326C35.4351 34.9423 35.2195 35 35 35H5C4.78069 34.9998 4.5653 34.9418 4.37545 34.832C4.1856 34.7222 4.02799 34.5644 3.91843 34.3744C3.80887 34.1844 3.75123 33.969 3.75128 33.7497C3.75134 33.5303 3.80909 33.3149 3.91875 33.125C6.29844 29.0109 9.96562 26.0609 14.2453 24.6625C12.1284 23.4023 10.4837 21.482 9.56373 19.1965C8.64379 16.9111 8.49951 14.3869 9.15303 12.0115C9.80656 9.63609 11.2218 7.54091 13.1813 6.04767C15.1408 4.55444 17.5364 3.74573 20 3.74573C22.4636 3.74573 24.8592 4.55444 26.8187 6.04767C28.7783 7.54091 30.1934 9.63609 30.847 12.0115C31.5005 14.3869 31.3562 16.9111 30.4363 19.1965C29.5163 21.482 27.8716 23.4023 25.7547 24.6625C30.0344 26.0609 33.7016 29.0109 36.0813 33.125C36.1912 33.3149 36.2492 33.5303 36.2495 33.7498C36.2498 33.9692 36.1923 34.1848 36.0828 34.375Z" fill="#0079E9"/>
</svg>
