<svg width="208" height="61" viewBox="0 0 208 61" fill="none" xmlns="http://www.w3.org/2000/svg">
<g clip-path="url(#clip0_2610_37885)">
<path d="M62.4183 38.3633V26.237H57.749V19.2102H62.6529L64.2866 12.5818H71.1733V19.2102H79.4619V26.237H71.1733V37.4009C71.1733 39.895 72.0502 40.177 75.8427 40.177H79.4619V47.2608C78.06 47.5454 75.784 47.8274 73.7426 47.8274C66.0963 47.8274 62.4183 45.1083 62.4183 38.3633Z" fill="white"/>
<path d="M83.5508 47.7135V19.2102H91.6635V23.7999H92.0125C93.4731 20.9099 96.0982 18.6436 100.243 18.6436C106.372 18.6436 108.648 23.0625 108.648 28.7854V31.3933H99.9521V29.8643C99.9521 26.8036 98.9607 25.8412 96.2155 25.8412C93.4703 25.8412 92.2471 26.7467 92.2471 29.8643V47.7135H83.5508Z" fill="white"/>
<path d="M111.044 33.5459C111.044 24.4234 116.649 18.6436 125.812 18.6436C134.974 18.6436 139.82 23.7429 139.82 31.1656C139.82 32.7516 139.585 34.3944 139.412 35.3595H119.274C119.45 39.3257 121.084 40.9116 125.87 40.9116C129.372 40.9116 130.891 40.1742 130.891 38.4175V38.0786H139.529V38.6452C139.529 44.707 134.159 48.2774 125.753 48.2774C115.655 48.2774 111.044 42.5545 111.044 33.5459ZM119.333 30.2032H131.416C131.592 27.2564 129.607 25.6135 125.521 25.6135C121.435 25.6135 119.684 27.1994 119.333 30.2032Z" fill="white"/>
<path d="M143.324 33.4916C143.324 24.483 148.052 18.6462 156.05 18.6462C160.544 18.6462 163.23 20.5737 164.573 22.954H164.922V9.75146H173.619V47.7162H165.506V43.5223H165.213C163.697 46.583 160.368 48.2828 156.047 48.2828C147.759 48.2828 143.321 42.446 143.321 33.4943L143.324 33.4916ZM158.499 41.0282C162.644 41.0282 164.92 39.6103 164.92 35.758V31.1683C164.92 27.316 162.644 25.8981 158.499 25.8981C153.422 25.8981 152.02 28.2784 152.02 33.4916C152.02 38.7048 153.422 41.0282 158.499 41.0282Z" fill="white"/>
<path d="M178.813 37.2871V19.2102H187.51V35.5873C187.51 39.5535 188.912 40.9713 193.288 40.9713C197.664 40.9713 199.3 39.6673 199.3 35.3623V19.2129H207.997V47.7163H199.884V42.7308H199.591C197.957 46.0165 194.863 48.2829 189.727 48.2829C182.022 48.2829 178.811 43.3543 178.811 37.2898L178.813 37.2871Z" fill="white"/>
<path d="M0 30.1138H29.2503C33.1712 30.1138 36.352 27.026 36.352 23.2197C36.352 19.4135 33.1712 16.3257 29.2503 16.3257H7.10173C3.18084 16.3257 0 19.4135 0 23.2197V30.1138Z" fill="#46AEE2"/>
<path d="M18.1747 14.3791C22.265 14.3791 25.5808 11.1602 25.5808 7.18955C25.5808 3.21887 22.265 0 18.1747 0C14.0844 0 10.7686 3.21887 10.7686 7.18955C10.7686 11.1602 14.0844 14.3791 18.1747 14.3791Z" fill="#FACB13"/>
<path d="M25.4691 32.0955H10.7686C10.7686 46.7457 21.8722 58.8746 36.3521 61V46.4014C30.0519 44.5226 25.4719 38.8268 25.4719 32.0982L25.4691 32.0955Z" fill="#374B9D"/>
</g>
<defs>
<clipPath id="clip0_2610_37885">
<rect width="208" height="61" fill="white"/>
</clipPath>
</defs>
</svg>
