<svg width="147" height="43" viewBox="0 0 147 43" fill="none" xmlns="http://www.w3.org/2000/svg">
<g clip-path="url(#clip0_3840_39861)">
<path d="M43.9181 27.0324V18.5005H40.6328V13.5565H44.0832L45.2326 8.89282H50.078V13.5565H55.9098V18.5005H50.078V26.3553C50.078 28.1101 50.695 28.3085 53.3633 28.3085H55.9098V33.2926C54.9234 33.4929 53.322 33.6913 51.8857 33.6913C46.5059 33.6913 43.9181 31.7781 43.9181 27.0324Z" fill="white"/>
<path d="M58.7861 33.6113V13.5566H64.4941V16.7859H64.7397C65.7674 14.7526 67.6144 13.158 70.5303 13.158C74.8432 13.158 76.4446 16.2671 76.4446 20.2936V22.1286H70.3259V21.0528C70.3259 18.8993 69.6284 18.2222 67.6969 18.2222C65.7654 18.2222 64.9048 18.8593 64.9048 21.0528V33.6113H58.7861Z" fill="white"/>
<path d="M78.1309 23.6431C78.1309 17.2246 82.0744 13.158 88.5212 13.158C94.968 13.158 98.377 16.7458 98.377 21.9684C98.377 23.0842 98.212 24.2401 98.0902 24.9191H83.9214C84.0452 27.7097 85.1946 28.8256 88.5624 28.8256C91.0264 28.8256 92.0953 28.3067 92.0953 27.0707V26.8323H98.1727V27.2309C98.1727 31.4959 94.3942 34.008 88.4799 34.008C81.3749 34.008 78.1309 29.9815 78.1309 23.6431ZM83.9626 21.2912H92.4647C92.5885 19.2179 91.1915 18.062 88.3168 18.062C85.4422 18.062 84.2102 19.1778 83.9626 21.2912Z" fill="white"/>
<path d="M100.843 23.6047C100.843 17.2663 104.169 13.1596 109.797 13.1596C112.958 13.1596 114.848 14.5158 115.794 16.1905H116.039V6.90137H122.158V33.613H116.45V30.6622H116.244C115.177 32.8156 112.834 34.0116 109.795 34.0116C103.963 34.0116 100.841 29.9049 100.841 23.6066L100.843 23.6047ZM111.52 28.9073C114.436 28.9073 116.037 27.9097 116.037 25.1993V21.97C116.037 19.2596 114.436 18.262 111.52 18.262C107.948 18.262 106.961 19.9367 106.961 23.6047C106.961 27.2727 107.948 28.9073 111.52 28.9073Z" fill="white"/>
<path d="M125.813 26.2751V13.5564H131.931V25.0792C131.931 27.8697 132.918 28.8673 135.997 28.8673C139.075 28.8673 140.227 27.9498 140.227 24.9208V13.5583H146.346V33.613H140.638V30.1052H140.431C139.282 32.417 137.105 34.0116 133.491 34.0116C128.07 34.0116 125.811 30.5439 125.811 26.277L125.813 26.2751Z" fill="white"/>
<path d="M0 21.2283H20.5802C23.3389 21.2283 25.5769 19.0557 25.5769 16.3777C25.5769 13.6997 23.3389 11.5271 20.5802 11.5271H4.99671C2.23801 11.5271 0 13.6997 0 16.3777V21.2283Z" fill="#46AEE2"/>
<path d="M12.788 10.1575C15.6659 10.1575 17.9989 7.89275 17.9989 5.09902C17.9989 2.30529 15.6659 0.0405273 12.788 0.0405273C9.91014 0.0405273 7.57715 2.30529 7.57715 5.09902C7.57715 7.89275 9.91014 10.1575 12.788 10.1575Z" fill="#FACB13"/>
<path d="M17.9203 22.6226H7.57715C7.57715 32.9303 15.3895 41.4641 25.5775 42.9595V32.688C21.1447 31.3662 17.9223 27.3587 17.9223 22.6245L17.9203 22.6226Z" fill="#374B9D"/>
</g>
<defs>
<clipPath id="clip0_3840_39861">
<rect width="146.347" height="42.919" fill="white" transform="translate(0 0.0405273)"/>
</clipPath>
</defs>
</svg>
