<svg width="144" height="46" viewBox="0 0 144 46" fill="none" xmlns="http://www.w3.org/2000/svg">
<g clip-path="url(#clip0_136_407)">
<path d="M43.213 28.9296V19.7852H39.9803V14.4862H43.3754L44.5064 9.48779H49.2741V14.4862H55.0124V19.7852H49.2741V28.2038C49.2741 30.0847 49.8812 30.2973 52.5067 30.2973H55.0124V35.6392C54.0418 35.8538 52.4661 36.0664 51.0528 36.0664C45.7592 36.0664 43.213 34.0159 43.213 28.9296Z" fill="#16144A"/>
<path d="M57.8428 35.9807V14.4864H63.4592V17.9474H63.7009C64.7121 15.7682 66.5295 14.0591 69.3986 14.0591C73.6424 14.0591 75.2181 17.3914 75.2181 21.707V23.6737H69.1975V22.5207C69.1975 20.2126 68.5112 19.4868 66.6107 19.4868C64.7101 19.4868 63.8633 20.1697 63.8633 22.5207V35.9807H57.8428Z" fill="#16144A"/>
<path d="M76.877 25.2969C76.877 18.4176 80.7572 14.0591 87.1007 14.0591C93.4441 14.0591 96.7985 17.9045 96.7985 23.502C96.7985 24.6979 96.6361 25.9368 96.5162 26.6646H82.5746C82.6964 29.6555 83.8275 30.8514 87.1413 30.8514C89.5657 30.8514 90.6175 30.2953 90.6175 28.9706V28.7151H96.5974V29.1423C96.5974 33.7135 92.8795 36.4059 87.0601 36.4059C80.069 36.4059 76.877 32.0903 76.877 25.2969ZM82.6152 22.7762H90.9809C91.1028 20.554 89.7281 19.3151 86.8996 19.3151C84.0711 19.3151 82.8588 20.5111 82.6152 22.7762Z" fill="#16144A"/>
<path d="M99.2248 25.2559C99.2248 18.4625 102.498 14.061 108.035 14.061C111.146 14.061 113.006 15.5146 113.936 17.3095H114.178V7.35352H120.198V35.9826H114.582V32.82H114.379C113.329 35.1281 111.024 36.4099 108.033 36.4099C102.295 36.4099 99.2229 32.0084 99.2229 25.258L99.2248 25.2559ZM109.731 30.9392C112.6 30.9392 114.176 29.87 114.176 26.965V23.5039C114.176 20.5989 112.6 19.5297 109.731 19.5297C106.216 19.5297 105.245 21.3246 105.245 25.2559C105.245 29.1872 106.216 30.9392 109.731 30.9392Z" fill="#16144A"/>
<path d="M123.794 28.1181V14.4863H129.815V26.8363C129.815 29.8272 130.785 30.8964 133.815 30.8964C136.845 30.8964 137.978 29.913 137.978 26.6666V14.4884H143.998V35.9827H138.382V32.2231H138.179C137.048 34.7009 134.905 36.41 131.35 36.41C126.016 36.41 123.792 32.6933 123.792 28.1201L123.794 28.1181Z" fill="#16144A"/>
<path d="M0 22.7086H20.2502C22.9647 22.7086 25.1668 20.3801 25.1668 17.5098C25.1668 14.6396 22.9647 12.311 20.2502 12.311H4.91658C2.20212 12.311 0 14.6396 0 17.5098V22.7086Z" fill="#46AEE2"/>
<path d="M12.5824 10.8433C15.4141 10.8433 17.7097 8.41591 17.7097 5.42163C17.7097 2.42735 15.4141 0 12.5824 0C9.75066 0 7.45508 2.42735 7.45508 5.42163C7.45508 8.41591 9.75066 10.8433 12.5824 10.8433Z" fill="#FACB13"/>
<path d="M17.6324 24.2031H7.45508C7.45508 35.2508 15.1422 44.3972 25.1668 46V34.9912C20.8051 33.5744 17.6343 29.2793 17.6343 24.2052L17.6324 24.2031Z" fill="#374B9D"/>
</g>
<defs>
<clipPath id="clip0_136_407">
<rect width="144" height="46" fill="white"/>
</clipPath>
</defs>
</svg>
