<svg width="13" height="13" viewBox="0 0 13 13" fill="none" xmlns="http://www.w3.org/2000/svg">
<path d="M10.4281 7.48193H2.17851C1.52764 7.48193 1 8.00957 1 8.66044V10.4282C1 11.0791 1.52764 11.6067 2.17851 11.6067H10.4281C11.0789 11.6067 11.6066 11.0791 11.6066 10.4282V8.66044C11.6066 8.00957 11.0789 7.48193 10.4281 7.48193Z" stroke="#0079E9" stroke-width="1.17851"/>
<path d="M5.12478 1.29468H2.17851C1.86595 1.29468 1.56619 1.41884 1.34518 1.63985C1.12416 1.86087 1 2.16063 1 2.47319V4.24095C1 4.55351 1.12416 4.85326 1.34518 5.07428C1.56619 5.29529 1.86595 5.41946 2.17851 5.41946H5.12478" stroke="#0079E9" stroke-width="1.17851" stroke-linecap="round"/>
<path d="M9.24959 5.71403C10.5513 5.71403 11.6066 4.65876 11.6066 3.35702C11.6066 2.05527 10.5513 1 9.24959 1C7.94785 1 6.89258 2.05527 6.89258 3.35702C6.89258 4.65876 7.94785 5.71403 9.24959 5.71403Z" stroke="#0079E9" stroke-width="1.17851"/>
<path d="M9.2496 4.24091C9.73776 4.24091 10.1335 3.84518 10.1335 3.35703C10.1335 2.86887 9.73776 2.47314 9.2496 2.47314C8.76145 2.47314 8.36572 2.86887 8.36572 3.35703C8.36572 3.84518 8.76145 4.24091 9.2496 4.24091Z" fill="#0079E9"/>
</svg>
