<svg width="24" height="24" viewBox="0 0 24 24" fill="none" xmlns="http://www.w3.org/2000/svg">
<path d="M21.4286 0H2.57143C1.15179 0 0 1.15179 0 2.57143V21.4286C0 22.8482 1.15179 24 2.57143 24H21.4286C22.8482 24 24 22.8482 24 21.4286V2.57143C24 1.15179 22.8482 0 21.4286 0ZM6.80357 18.8839C6.50893 19.3982 5.85 19.5696 5.34107 19.275C4.82679 18.9804 4.65536 18.3214 4.95 17.8125L5.71607 16.4893C6.57857 16.2268 7.28571 16.4304 7.8375 17.1L6.80357 18.8839ZM14.2446 15.9964H4.5C3.91071 15.9964 3.42857 15.5143 3.42857 14.925C3.42857 14.3357 3.91071 13.8536 4.5 13.8536H7.23214L10.7357 7.78929L9.6375 5.89286C9.34286 5.37857 9.51964 4.725 10.0286 4.43036C10.5429 4.13571 11.1964 4.3125 11.4911 4.82143L11.9679 5.64643L12.4446 4.82143C12.7393 4.30714 13.3982 4.13571 13.9071 4.43036C14.4214 4.725 14.5929 5.38393 14.2982 5.89286L9.70179 13.8536H13.0286C14.1107 13.8536 14.7161 15.1232 14.2446 15.9964ZM19.5 15.9964H17.9464L18.9964 17.8125C19.2911 18.3268 19.1143 18.9804 18.6054 19.275C18.0911 19.5696 17.4375 19.3929 17.1429 18.8839C15.3804 15.8357 14.0625 13.5429 13.1786 12.0214C12.2839 10.4679 12.9214 8.91429 13.5589 8.38929C14.2607 9.60536 15.3107 11.4268 16.7143 13.8536H19.5C20.0893 13.8536 20.5714 14.3357 20.5714 14.925C20.5714 15.5196 20.0893 15.9964 19.5 15.9964Z" fill="white"/>
</svg>
