<svg width="102" height="102" viewBox="0 0 102 102" fill="none" xmlns="http://www.w3.org/2000/svg">
<path d="M98.1694 55.5079C100.651 53.1826 106.586 41.6105 95.5466 31.2464C91.8335 27.7554 83.4348 24.0168 73.9517 24.0168C59.5649 24.0168 41.2234 31.5121 34.0919 48.2965C23.8189 72.4553 43.2155 96.4933 67.0029 96.4933C77.9595 96.4933 89.9593 89.5718 94.8394 82.5537C95.1458 82.1128 95.4818 81.6961 95.8001 81.2672C97.0024 79.6667 99.3422 75.2155 91.474 71.8211C87.979 70.3112 87.5487 66.8323 87.979 65.0989C89.2697 59.8625 93.6665 59.7296 98.1694 55.5079ZM80.5646 81.7081C76.7513 83.0369 72.8024 81.5632 71.7415 78.4104C70.6806 75.2638 72.9085 71.6339 76.7218 70.3052C80.5351 68.9764 84.4839 70.4501 85.5448 73.6028C86.6057 76.7495 84.3779 80.3794 80.5646 81.7081Z" fill="url(#paint0_radial_559_588)"/>
<mask id="mask0_559_588" style="mask-type:luminance" maskUnits="userSpaceOnUse" x="15" y="9" width="71" height="79">
<path d="M71.1755 26.8091C71.65 23.3985 69.0594 10.5997 54.1104 9.78289C49.0791 9.50436 40.2763 12.0847 32.9535 18.2576C21.8443 27.6226 12.3277 45.3493 17.2255 62.9515C24.2692 88.2928 54.1482 94.2278 72.5164 78.7435C80.9769 71.6114 85.9523 58.4558 85.37 49.8601C85.3333 49.3202 85.3344 48.7797 85.3143 48.2415C85.2506 46.223 84.298 41.2628 76.1181 43.7637C72.4833 44.8728 69.9945 42.4667 69.2522 40.8482C67.0028 35.9647 70.3155 33.0001 71.1755 26.8091ZM73.8231 58.4993C71.7022 62.0075 67.7394 63.4401 64.9658 61.6963C62.196 59.9572 61.6661 55.7042 63.787 52.1959C65.9078 48.6877 69.8706 47.2552 72.6442 48.999C75.4141 50.7381 75.9439 54.9911 73.8231 58.4993Z" fill="white"/>
</mask>
<g mask="url(#mask0_559_588)">
<path opacity="0.2" d="M47.0868 81.6502C51.1244 78.2526 53.7238 74.6589 52.8926 73.6235C52.0615 72.5881 48.1146 74.5031 44.077 77.9007C40.0395 81.2984 37.4401 84.8921 38.2713 85.9275C39.1024 86.9629 43.0493 85.0479 47.0868 81.6502Z" fill="#FFA726"/>
</g>
<mask id="mask1_559_588" style="mask-type:luminance" maskUnits="userSpaceOnUse" x="31" y="24" width="71" height="73">
<path d="M98.1691 55.5079C100.65 53.1826 106.585 41.6105 95.5464 31.2464C91.8333 27.7554 83.4346 24.0168 73.9515 24.0168C59.5647 24.0168 41.2231 31.5121 34.0916 48.2965C23.8187 72.4553 43.2152 96.4933 67.0027 96.4933C77.9593 96.4933 89.959 89.5718 94.8391 82.5537C95.1456 82.1128 95.4816 81.6961 95.7998 81.2672C97.0022 79.6667 99.342 75.2155 91.4738 71.8211C87.9787 70.3112 87.5485 66.8323 87.9787 65.0989C89.2695 59.8625 93.6663 59.7296 98.1691 55.5079ZM80.5643 81.7081C76.751 83.0369 72.8022 81.5632 71.7413 78.4104C70.6804 75.2638 72.9083 71.6339 76.7216 70.3052C80.5348 68.9764 84.4837 70.4501 85.5446 73.6028C86.6055 76.7495 84.3776 80.3794 80.5643 81.7081Z" fill="white"/>
</mask>
<g mask="url(#mask1_559_588)">
<path opacity="0.2" d="M35.7469 83.061C35.7469 83.061 49.9215 68.4872 54.6484 70.9151C59.3752 73.3431 42.8372 87.9169 42.8372 87.9169H40.4738L42.8372 90.3449C42.8372 90.3449 64.0962 73.3431 61.7386 66.0532C59.3811 58.7632 35.4758 79.7693 33.8904 80.7176L35.7469 83.061Z" fill="#FFA726"/>
</g>
<mask id="mask2_559_588" style="mask-type:luminance" maskUnits="userSpaceOnUse" x="31" y="24" width="71" height="73">
<path d="M98.1691 55.5079C100.65 53.1826 106.585 41.6105 95.5464 31.2464C91.8333 27.7554 83.4346 24.0168 73.9515 24.0168C59.5647 24.0168 41.2231 31.5121 34.0916 48.2965C23.8187 72.4553 43.2152 96.4933 67.0027 96.4933C77.9593 96.4933 89.959 89.5718 94.8391 82.5537C95.1456 82.1128 95.4816 81.6961 95.7998 81.2672C97.0022 79.6667 99.342 75.2155 91.4738 71.8211C87.9787 70.3112 87.5485 66.8323 87.9787 65.0989C89.2695 59.8625 93.6663 59.7296 98.1691 55.5079ZM80.5643 81.7081C76.751 83.0369 72.8022 81.5632 71.7413 78.4104C70.6804 75.2638 72.9083 71.6339 76.7216 70.3052C80.5348 68.9764 84.4837 70.4501 85.5446 73.6028C86.6055 76.7495 84.3776 80.3794 80.5643 81.7081Z" fill="white"/>
</mask>
<g mask="url(#mask2_559_588)">
<path opacity="0.2" d="M29.8064 74.4605C29.8064 74.4605 49.5801 58.2741 69.0533 56.3535C69.0533 56.3535 75.2477 54.9402 73.8744 59.7901C72.4953 64.646 65.4168 81.8411 47.8061 93.6728L45.7433 92.1569C45.7433 92.1569 75.843 70.6132 66.1064 60.7987C66.1064 60.7987 65.0219 58.9808 58.633 61.608C52.2441 64.2353 30.6905 79.1111 30.6905 79.1111L29.8064 74.4605Z" fill="#FFA726"/>
</g>
<mask id="mask3_559_588" style="mask-type:luminance" maskUnits="userSpaceOnUse" x="31" y="24" width="71" height="73">
<path d="M98.1691 55.5079C100.65 53.1826 106.585 41.6105 95.5464 31.2464C91.8333 27.7554 83.4346 24.0168 73.9515 24.0168C59.5647 24.0168 41.2231 31.5121 34.0916 48.2965C23.8187 72.4553 43.2152 96.4933 67.0027 96.4933C77.9593 96.4933 89.959 89.5718 94.8391 82.5537C95.1456 82.1128 95.4816 81.6961 95.7998 81.2672C97.0022 79.6667 99.342 75.2155 91.4738 71.8211C87.9787 70.3112 87.5485 66.8323 87.9787 65.0989C89.2695 59.8625 93.6663 59.7296 98.1691 55.5079ZM80.5643 81.7081C76.751 83.0369 72.8022 81.5632 71.7413 78.4104C70.6804 75.2638 72.9083 71.6339 76.7216 70.3052C80.5348 68.9764 84.4837 70.4501 85.5446 73.6028C86.6055 76.7495 84.3776 80.3794 80.5643 81.7081Z" fill="white"/>
</mask>
<g mask="url(#mask3_559_588)">
<path opacity="0.2" d="M26.9553 69.0248C26.9553 69.0248 41.2007 58.721 57.3792 53.2611C73.5577 47.8012 80.0762 37.123 80.0762 37.123C80.0762 37.123 80.1941 46.8047 54.8448 56.9876C29.4956 67.1706 29.1301 72.256 29.1301 72.256L26.9553 69.0248Z" fill="#FFA726"/>
</g>
<mask id="mask4_559_588" style="mask-type:luminance" maskUnits="userSpaceOnUse" x="31" y="24" width="71" height="73">
<path d="M98.1691 55.5079C100.65 53.1826 106.585 41.6105 95.5464 31.2464C91.8333 27.7554 83.4346 24.0168 73.9515 24.0168C59.5647 24.0168 41.2231 31.5121 34.0916 48.2965C23.8187 72.4553 43.2152 96.4933 67.0027 96.4933C77.9593 96.4933 89.959 89.5718 94.8391 82.5537C95.1456 82.1128 95.4816 81.6961 95.7998 81.2672C97.0022 79.6667 99.342 75.2155 91.4738 71.8211C87.9787 70.3112 87.5485 66.8323 87.9787 65.0989C89.2695 59.8625 93.6663 59.7296 98.1691 55.5079ZM80.5643 81.7081C76.751 83.0369 72.8022 81.5632 71.7413 78.4104C70.6804 75.2638 72.9083 71.6339 76.7216 70.3052C80.5348 68.9764 84.4837 70.4501 85.5446 73.6028C86.6055 76.7495 84.3776 80.3794 80.5643 81.7081Z" fill="white"/>
</mask>
<g mask="url(#mask4_559_588)">
<path opacity="0.2" d="M67.5449 23.7026C67.5449 23.7026 44.6062 51.5095 32.6536 45.053L30.4788 49.3956C30.4788 49.3956 50.6415 52.0047 70.5567 23.449L67.5449 23.7026Z" fill="#FFA726"/>
</g>
<mask id="mask5_559_588" style="mask-type:luminance" maskUnits="userSpaceOnUse" x="31" y="24" width="71" height="73">
<path d="M98.1691 55.5079C100.65 53.1826 106.585 41.6105 95.5464 31.2464C91.8333 27.7554 83.4346 24.0168 73.9515 24.0168C59.5647 24.0168 41.2231 31.5121 34.0916 48.2965C23.8187 72.4553 43.2152 96.4933 67.0027 96.4933C77.9593 96.4933 89.959 89.5718 94.8391 82.5537C95.1456 82.1128 95.4816 81.6961 95.7998 81.2672C97.0022 79.6667 99.342 75.2155 91.4738 71.8211C87.9787 70.3112 87.5485 66.8323 87.9787 65.0989C89.2695 59.8625 93.6663 59.7296 98.1691 55.5079ZM80.5643 81.7081C76.751 83.0369 72.8022 81.5632 71.7413 78.4104C70.6804 75.2638 72.9083 71.6339 76.7216 70.3052C80.5348 68.9764 84.4837 70.4501 85.5446 73.6028C86.6055 76.7495 84.3776 80.3794 80.5643 81.7081Z" fill="white"/>
</mask>
<g mask="url(#mask5_559_588)">
<path opacity="0.2" d="M29.1696 55.9065C29.1696 55.9065 46.4325 53.4242 56.6936 46.3456C66.9548 39.2671 72.1413 26.6139 88.202 27.2299L91.4612 28.5949C91.4612 28.5949 80.9585 26.2334 72.2651 36.7908C63.5717 47.3482 61.4028 48.2119 53.676 51.0687C45.9492 53.9255 27.478 58.1412 27.478 58.1412L29.1696 55.9065Z" fill="#FFA726"/>
</g>
<mask id="mask6_559_588" style="mask-type:luminance" maskUnits="userSpaceOnUse" x="31" y="24" width="71" height="73">
<path d="M98.1691 55.5079C100.65 53.1826 106.585 41.6105 95.5464 31.2464C91.8333 27.7554 83.4346 24.0168 73.9515 24.0168C59.5647 24.0168 41.2231 31.5121 34.0916 48.2965C23.8187 72.4553 43.2152 96.4933 67.0027 96.4933C77.9593 96.4933 89.959 89.5718 94.8391 82.5537C95.1456 82.1128 95.4816 81.6961 95.7998 81.2672C97.0022 79.6667 99.342 75.2155 91.4738 71.8211C87.9787 70.3112 87.5485 66.8323 87.9787 65.0989C89.2695 59.8625 93.6663 59.7296 98.1691 55.5079ZM80.5643 81.7081C76.751 83.0369 72.8022 81.5632 71.7413 78.4104C70.6804 75.2638 72.9083 71.6339 76.7216 70.3052C80.5348 68.9764 84.4837 70.4501 85.5446 73.6028C86.6055 76.7495 84.3776 80.3794 80.5643 81.7081Z" fill="white"/>
</mask>
<g mask="url(#mask6_559_588)">
<path opacity="0.2" d="M98.8876 33.8374C98.8876 33.8374 86.5159 41.0609 82.6965 45.9349C82.6965 45.9349 97.6676 38.2404 102.1 39.1825L98.8876 33.8374Z" fill="#FFA726"/>
</g>
<mask id="mask7_559_588" style="mask-type:luminance" maskUnits="userSpaceOnUse" x="31" y="24" width="71" height="73">
<path d="M98.1691 55.5079C100.65 53.1826 106.585 41.6105 95.5464 31.2464C91.8333 27.7554 83.4346 24.0168 73.9515 24.0168C59.5647 24.0168 41.2231 31.5121 34.0916 48.2965C23.8187 72.4553 43.2152 96.4933 67.0027 96.4933C77.9593 96.4933 89.959 89.5718 94.8391 82.5537C95.1456 82.1128 95.4816 81.6961 95.7998 81.2672C97.0022 79.6667 99.342 75.2155 91.4738 71.8211C87.9787 70.3112 87.5485 66.8323 87.9787 65.0989C89.2695 59.8625 93.6663 59.7296 98.1691 55.5079ZM80.5643 81.7081C76.751 83.0369 72.8022 81.5632 71.7413 78.4104C70.6804 75.2638 72.9083 71.6339 76.7216 70.3052C80.5348 68.9764 84.4837 70.4501 85.5446 73.6028C86.6055 76.7495 84.3776 80.3794 80.5643 81.7081Z" fill="white"/>
</mask>
<g mask="url(#mask7_559_588)">
<path opacity="0.2" d="M102.135 42.8547C102.135 42.8547 78.996 51.4492 73.4145 66.9411C67.8331 82.4329 60.3833 87.1318 58.6859 88.0016C56.9944 88.8713 47.6822 97.2242 47.5112 97.9248L54.4541 99.32C54.4541 99.32 70.0256 85.7427 71.7171 76.3449C73.4086 66.9471 82.3201 53.8349 104.504 43.8996L102.135 42.8547Z" fill="#FFA726"/>
</g>
<mask id="mask8_559_588" style="mask-type:luminance" maskUnits="userSpaceOnUse" x="31" y="24" width="71" height="73">
<path d="M98.1691 55.5079C100.65 53.1826 106.585 41.6105 95.5464 31.2464C91.8333 27.7554 83.4346 24.0168 73.9515 24.0168C59.5647 24.0168 41.2231 31.5121 34.0916 48.2965C23.8187 72.4553 43.2152 96.4933 67.0027 96.4933C77.9593 96.4933 89.959 89.5718 94.8391 82.5537C95.1456 82.1128 95.4816 81.6961 95.7998 81.2672C97.0022 79.6667 99.342 75.2155 91.4738 71.8211C87.9787 70.3112 87.5485 66.8323 87.9787 65.0989C89.2695 59.8625 93.6663 59.7296 98.1691 55.5079ZM80.5643 81.7081C76.751 83.0369 72.8022 81.5632 71.7413 78.4104C70.6804 75.2638 72.9083 71.6339 76.7216 70.3052C80.5348 68.9764 84.4837 70.4501 85.5446 73.6028C86.6055 76.7495 84.3776 80.3794 80.5643 81.7081Z" fill="white"/>
</mask>
<g mask="url(#mask8_559_588)">
<path opacity="0.2" d="M77.339 79.5398C77.339 79.5398 71.0738 94.8565 59.5632 104.429C59.5632 104.429 72.7654 98.1602 81.0639 80.9289L77.339 79.5398Z" fill="#FFA726"/>
</g>
<mask id="mask9_559_588" style="mask-type:luminance" maskUnits="userSpaceOnUse" x="31" y="24" width="71" height="73">
<path d="M98.1691 55.5079C100.65 53.1826 106.585 41.6105 95.5464 31.2464C91.8333 27.7554 83.4346 24.0168 73.9515 24.0168C59.5647 24.0168 41.2231 31.5121 34.0916 48.2965C23.8187 72.4553 43.2152 96.4933 67.0027 96.4933C77.9593 96.4933 89.959 89.5718 94.8391 82.5537C95.1456 82.1128 95.4816 81.6961 95.7998 81.2672C97.0022 79.6667 99.342 75.2155 91.4738 71.8211C87.9787 70.3112 87.5485 66.8323 87.9787 65.0989C89.2695 59.8625 93.6663 59.7296 98.1691 55.5079ZM80.5643 81.7081C76.751 83.0369 72.8022 81.5632 71.7413 78.4104C70.6804 75.2638 72.9083 71.6339 76.7216 70.3052C80.5348 68.9764 84.4837 70.4501 85.5446 73.6028C86.6055 76.7495 84.3776 80.3794 80.5643 81.7081Z" fill="white"/>
</mask>
<g mask="url(#mask9_559_588)">
<path opacity="0.2" d="M91.9482 71.9542C91.9482 71.9542 87.0207 92.5012 78.1147 97.5806C78.1147 97.5806 90.4334 96.4754 96.1153 71.2898L91.9482 71.9542Z" fill="#FFA726"/>
</g>
<path opacity="0.2" d="M73.9517 25.8288C82.6215 25.8288 90.7785 29.2291 94.3561 32.5872C98.2578 36.2533 100.238 40.3784 100.232 44.8538C100.226 49.5527 97.9985 53.2249 96.9788 54.1731C95.47 55.5864 93.9789 56.4984 92.529 57.3802C89.8237 59.0351 87.2658 60.5994 86.2698 64.658C85.6568 67.1585 86.3523 71.5735 90.7962 73.4941C93.3659 74.6054 94.9042 75.8919 95.246 77.2267C95.5525 78.4105 94.8512 79.5761 94.4091 80.162C94.3089 80.2948 94.2087 80.4217 94.1085 80.5546C93.8787 80.8565 93.637 81.1646 93.4072 81.5028C88.9927 87.8384 77.6471 94.6814 67.0029 94.6814C55.451 94.6814 44.3707 88.5813 38.0938 78.7608C32.3591 69.7858 31.4927 58.9505 35.7127 49.0212C38.8246 41.7011 44.5003 35.6312 52.1328 31.4638C58.7869 27.8279 66.5373 25.8288 73.9517 25.8288ZM77.7355 84.0093C78.8789 84.0093 80.0223 83.81 81.1363 83.4234C83.6765 82.5416 85.7393 80.7478 86.812 78.5131C87.6666 76.7254 87.8081 74.7685 87.2187 73.011C86.1931 69.973 83.1873 68.004 79.5567 68.004C78.4133 68.004 77.2699 68.2034 76.156 68.5899C73.6158 69.4717 71.5529 71.2655 70.4802 73.5002C69.6256 75.2879 69.4842 77.2448 70.0736 79.0023C71.0991 82.0464 74.1049 84.0093 77.7355 84.0093ZM73.9517 24.0168C59.5649 24.0168 41.2234 31.5121 34.0919 48.2965C23.8189 72.4553 43.2155 96.4933 67.0029 96.4933C77.9595 96.4933 89.9593 89.5718 94.8394 82.5537C95.1458 82.1128 95.4818 81.6961 95.8001 81.2672C97.0024 79.6667 99.3422 75.2155 91.474 71.8211C87.979 70.3112 87.5487 66.8323 87.979 65.0989C89.2638 59.8625 93.6606 59.7236 98.1635 55.5079C100.645 53.1826 106.58 41.6105 95.5407 31.2464C91.8335 27.7554 83.4348 24.0168 73.9517 24.0168ZM77.7355 82.1973C74.9654 82.1973 72.5431 80.778 71.7415 78.4165C70.6806 75.2698 72.9085 71.6399 76.7218 70.3112C77.6707 69.979 78.6314 69.822 79.5508 69.822C82.3209 69.822 84.7433 71.2413 85.5448 73.6089C86.6057 76.7556 84.3779 80.3854 80.5646 81.7142C79.6157 82.0403 78.655 82.1973 77.7355 82.1973Z" fill="#424242"/>
<path d="M67.5725 41.8915C71.5563 40.6175 73.9776 36.9311 72.9808 33.6578C71.9839 30.3844 67.9464 28.7636 63.9627 30.0375C59.979 31.3115 57.5576 34.9978 58.5544 38.2712C59.5513 41.5446 63.5888 43.1654 67.5725 41.8915Z" fill="#C62828"/>
<path d="M71.8519 32.9193C72.8009 36.1023 70.3961 39.6899 66.4706 40.928C62.5451 42.1661 58.5902 40.5898 57.6412 37.4069C56.6923 34.2239 59.0971 30.6363 63.0225 29.3982C66.948 28.1601 70.8971 29.7364 71.8519 32.9193Z" fill="url(#paint1_radial_559_588)"/>
<path d="M51.2764 54.9644C55.2974 53.6785 57.7442 49.967 56.7416 46.6746C55.7389 43.3821 51.6664 41.7554 47.6454 43.0413C43.6244 44.3272 41.1776 48.0387 42.1802 51.3312C43.1829 54.6237 47.2554 56.2503 51.2764 54.9644Z" fill="#1565C0"/>
<path d="M55.7587 45.8506C56.7371 49.1181 54.2616 52.7902 50.2418 54.0646C46.2221 55.339 42.1669 53.7203 41.1885 50.4528C40.2101 47.1854 42.6856 43.5132 46.7054 42.2388C50.7252 40.9645 54.7803 42.5831 55.7587 45.8506Z" fill="url(#paint2_radial_559_588)"/>
<path d="M46.9632 73.2221C51.0961 71.9004 53.6077 68.0747 52.573 64.6772C51.5384 61.2796 47.3493 59.5968 43.2164 60.9184C39.0835 62.2401 36.5719 66.0658 37.6066 69.4633C38.6412 72.8609 42.8303 74.5437 46.9632 73.2221Z" fill="#F9A825"/>
<path d="M51.6197 64.2292C52.5687 67.4121 50.1639 70.9997 46.2384 72.2379C42.3129 73.476 38.358 71.8996 37.409 68.7167C36.4601 65.5338 38.8649 61.9462 42.7904 60.7081C46.7158 59.4639 50.6708 61.0402 51.6197 64.2292Z" fill="url(#paint3_radial_559_588)"/>
<path d="M59.1896 89.8441C63.1294 88.5823 65.5093 84.8907 64.5053 81.5985C63.5013 78.3064 59.4936 76.6605 55.5538 77.9222C51.614 79.1839 49.2341 82.8756 50.2381 86.1677C51.2421 89.4599 55.2498 91.1058 59.1896 89.8441Z" fill="#558B2F"/>
<path d="M63.4977 81.0378C64.4466 84.2207 62.0418 87.8083 58.1163 89.0464C54.1909 90.2845 50.2359 88.7082 49.287 85.5253C48.338 82.3423 50.7428 78.7547 54.6683 77.5166C58.5938 76.2785 62.5487 77.8548 63.4977 81.0378Z" fill="url(#paint4_radial_559_588)"/>
<defs>
<radialGradient id="paint0_radial_559_588" cx="0" cy="0" r="1" gradientUnits="userSpaceOnUse" gradientTransform="translate(64.6665 34.1448) rotate(90) scale(64.2866 41.1784)">
<stop stop-color="#FFCC80"/>
<stop offset="0.2942" stop-color="#FFCB7D"/>
<stop offset="0.4879" stop-color="#FFC774"/>
<stop offset="0.6526" stop-color="#FFC166"/>
<stop offset="0.8012" stop-color="#FFB850"/>
<stop offset="0.9375" stop-color="#FFAD35"/>
<stop offset="1" stop-color="#FFA726"/>
</radialGradient>
<radialGradient id="paint1_radial_559_588" cx="0" cy="0" r="1" gradientUnits="userSpaceOnUse" gradientTransform="translate(63.7811 29.9563) rotate(90) scale(10.3273 7.85908)">
<stop stop-color="#EF5350"/>
<stop offset="0.3459" stop-color="#E94B49"/>
<stop offset="0.8869" stop-color="#D73534"/>
<stop offset="1" stop-color="#D32F2F"/>
</radialGradient>
<radialGradient id="paint2_radial_559_588" cx="0" cy="0" r="1" gradientUnits="userSpaceOnUse" gradientTransform="translate(47.4843 42.81) rotate(90) scale(12.3132 9.37032)">
<stop stop-color="#42A5F5"/>
<stop offset="0.2859" stop-color="#3B9DEF"/>
<stop offset="0.7328" stop-color="#2787DE"/>
<stop offset="1" stop-color="#1976D2"/>
</radialGradient>
<radialGradient id="paint3_radial_559_588" cx="0" cy="0" r="1" gradientUnits="userSpaceOnUse" gradientTransform="translate(43.5524 61.2613) rotate(90) scale(12.687 9.65482)">
<stop stop-color="#FFEB3B"/>
<stop offset="0.436" stop-color="#FFEB3B"/>
<stop offset="0.6129" stop-color="#FEE238"/>
<stop offset="0.8995" stop-color="#FCCA30"/>
<stop offset="1" stop-color="#FBC02D"/>
</radialGradient>
<radialGradient id="paint4_radial_559_588" cx="0" cy="0" r="1" gradientUnits="userSpaceOnUse" gradientTransform="translate(55.4279 78.0723) rotate(90) scale(10.3273 7.85908)">
<stop stop-color="#8BC34A"/>
<stop offset="0.3459" stop-color="#83BB46"/>
<stop offset="0.8869" stop-color="#6DA53B"/>
<stop offset="1" stop-color="#689F38"/>
</radialGradient>
</defs>
</svg>
