<svg width="102" height="102" viewBox="0 0 102 102" fill="none" xmlns="http://www.w3.org/2000/svg">
<path d="M9.59124 0H46.6489C46.6489 0 74.2779 56.3624 43.0026 94.9162C43.0026 94.9162 40.0708 100 33.8857 100C27.7007 100 25.0979 97.3043 25.0979 97.3043C25.0979 97.3043 16.603 92.3376 19.4161 81.8508C22.2291 71.364 12.8276 61.6554 3.35493 53.4109C-6.11776 45.1665 6.4487 35.998 16.5589 30.2079C26.6691 24.4179 9.59124 0 9.59124 0V0Z" fill="#FFDD95"/>
<mask id="mask0_559_818" style="mask-type:luminance" maskUnits="userSpaceOnUse" x="0" y="0" width="58" height="100">
<path d="M9.59124 0H46.6489C46.6489 0 74.2779 56.3624 43.0026 94.9162C43.0026 94.9162 40.0708 100 33.8857 100C27.7007 100 25.0979 97.3043 25.0979 97.3043C25.0979 97.3043 16.603 92.3376 19.4161 81.8508C22.2291 71.364 12.8276 61.6554 3.35493 53.4109C-6.11776 45.1665 6.4487 35.998 16.5589 30.2079C26.6691 24.4179 9.59124 0 9.59124 0V0Z" fill="white"/>
</mask>
<g mask="url(#mask0_559_818)">
<path d="M27.1201 46.4237C25.8829 46.793 25.3233 47.7695 25.8702 48.6049C26.417 49.4403 27.8632 49.8181 29.1004 49.4489L66.2217 38.3694L17.7863 16.5041L58.0136 15.0547C59.3643 15.0061 60.4009 14.2272 60.3288 13.3152C60.2567 12.4031 59.1033 11.7032 57.7526 11.7519L2.82959 13.7308L56.0938 37.776L27.1201 46.4237Z" fill="#D650C7"/>
</g>
<mask id="mask1_559_818" style="mask-type:luminance" maskUnits="userSpaceOnUse" x="0" y="0" width="58" height="100">
<path d="M9.59124 0H46.6489C46.6489 0 74.2779 56.3624 43.0026 94.9162C43.0026 94.9162 40.0708 100 33.8857 100C27.7007 100 25.0979 97.3043 25.0979 97.3043C25.0979 97.3043 16.603 92.3376 19.4161 81.8508C22.2291 71.364 12.8276 61.6554 3.35493 53.4109C-6.11776 45.1665 6.4487 35.998 16.5589 30.2079C26.6691 24.4179 9.59124 0 9.59124 0V0Z" fill="white"/>
</mask>
<g mask="url(#mask1_559_818)">
<path fill-rule="evenodd" clip-rule="evenodd" d="M12.693 26.9146C12.693 26.9146 36.2478 37.1243 37.5045 52.2001C38.7612 67.2759 47.7366 74.7642 59.7844 75.3536C71.8322 75.943 33.8196 109.1 33.8196 109.1C33.8196 109.1 15.8227 99.4354 12.693 93.9758C9.5632 88.5161 2.58444 54.6128 2.58444 54.6128L-8.0498 38.5544L12.693 26.9146Z" fill="#FF78C7"/>
</g>
<path d="M53.676 0H90.7336C90.7336 0 118.363 56.3624 87.0874 94.9162C87.0874 94.9162 84.1555 100 77.9704 100C71.7854 100 69.1826 97.3043 69.1826 97.3043C69.1826 97.3043 60.6877 92.3376 63.5008 81.8508C66.3138 71.364 56.9123 61.6554 47.4396 53.4109C37.967 45.1665 50.5334 35.998 60.6436 30.2079C70.7538 24.4179 53.676 0 53.676 0V0Z" fill="#FFDD95"/>
<mask id="mask2_559_818" style="mask-type:luminance" maskUnits="userSpaceOnUse" x="44" y="0" width="58" height="100">
<path d="M53.676 0H90.7336C90.7336 0 118.363 56.3624 87.0874 94.9162C87.0874 94.9162 84.1555 100 77.9704 100C71.7854 100 69.1826 97.3043 69.1826 97.3043C69.1826 97.3043 60.6877 92.3376 63.5008 81.8508C66.3138 71.364 56.9123 61.6554 47.4396 53.4109C37.967 45.1665 50.5334 35.998 60.6436 30.2079C70.7538 24.4179 53.676 0 53.676 0V0Z" fill="white"/>
</mask>
<g mask="url(#mask2_559_818)">
<path d="M71.2048 46.4237C69.9676 46.793 69.408 47.7695 69.9549 48.6049C70.5017 49.4403 71.9479 49.8181 73.1851 49.4489L110.306 38.3694L61.871 16.5041L102.098 15.0547C103.449 15.0061 104.486 14.2272 104.414 13.3152C104.341 12.4031 103.188 11.7032 101.837 11.7519L46.9143 13.7308L100.179 37.776L71.2048 46.4237Z" fill="#D650C7"/>
</g>
<mask id="mask3_559_818" style="mask-type:luminance" maskUnits="userSpaceOnUse" x="44" y="0" width="58" height="100">
<path d="M53.676 0H90.7336C90.7336 0 118.363 56.3624 87.0874 94.9162C87.0874 94.9162 84.1555 100 77.9704 100C71.7854 100 69.1826 97.3043 69.1826 97.3043C69.1826 97.3043 60.6877 92.3376 63.5008 81.8508C66.3138 71.364 56.9123 61.6554 47.4396 53.4109C37.967 45.1665 50.5334 35.998 60.6436 30.2079C70.7538 24.4179 53.676 0 53.676 0V0Z" fill="white"/>
</mask>
<g mask="url(#mask3_559_818)">
<path fill-rule="evenodd" clip-rule="evenodd" d="M56.7777 26.9146C56.7777 26.9146 80.3326 37.1243 81.5892 52.2001C82.8459 67.2759 91.8213 74.7642 103.869 75.3536C115.917 75.943 77.9043 109.1 77.9043 109.1C77.9043 109.1 59.9075 99.4354 56.7777 93.9758C53.6479 88.5161 46.6692 54.6128 46.6692 54.6128L36.0349 38.5544L56.7777 26.9146Z" fill="#FF78C7"/>
</g>
</svg>
