<svg width="14" height="14" viewBox="0 0 14 14" fill="none" xmlns="http://www.w3.org/2000/svg">
<path d="M12.7168 4.51602C13.5053 3.72749 13.1457 2.80648 12.7168 2.3586L10.8243 0.466119C10.0294 -0.322413 9.11474 0.0371579 8.66685 0.466119L7.59445 1.54483H5.96061C4.76204 1.54483 4.06813 2.17566 3.71487 2.90111L0.914005 5.70197V8.22527L0.466119 8.66685C-0.322413 9.46169 0.0371579 10.3764 0.466119 10.8243L2.3586 12.7168C2.69924 13.0574 3.06512 13.1836 3.41207 13.1836C3.85996 13.1836 4.27 12.9628 4.51602 12.7168L6.21925 11.0072H8.48391C9.55632 11.0072 10.0988 10.3385 10.2944 9.68248C11.0072 9.49323 11.3983 8.95072 11.556 8.42083C12.5338 8.1685 12.8997 7.24119 12.8997 6.59144V4.69896H12.5275L12.7168 4.51602ZM11.638 6.59144C11.638 6.87531 11.5182 7.22226 11.0072 7.22226H10.3764V7.85309C10.3764 8.13696 10.2565 8.48391 9.74556 8.48391H9.11474V9.11474C9.11474 9.39861 8.99488 9.74556 8.48391 9.74556H5.70197L3.63286 11.8147C3.43731 11.9976 3.32376 11.8904 3.25437 11.821L1.3682 9.94112C1.18526 9.74556 1.2925 9.63201 1.36189 9.56262L2.17566 8.74255V6.21925L3.43731 4.9576V5.96061C3.43731 6.72391 3.94197 7.85309 5.32978 7.85309C6.7176 7.85309 7.22226 6.72391 7.22226 5.96061H11.638V6.59144ZM11.821 3.62025L10.7486 4.69896H5.96061V5.96061C5.96061 6.24448 5.84075 6.59144 5.32978 6.59144C4.81882 6.59144 4.69896 6.24448 4.69896 5.96061V4.06813C4.69896 3.77795 4.8062 2.80648 5.96061 2.80648H8.11172L9.55001 1.3682C9.74556 1.18526 9.85911 1.2925 9.9285 1.36189L11.8147 3.24175C11.9976 3.43731 11.8904 3.55086 11.821 3.62025Z" fill="white"/>
</svg>
