<svg width="14" height="14" viewBox="0 0 14 14" fill="none" xmlns="http://www.w3.org/2000/svg">
<path d="M6.13657 10.2276H7.50025V6.13657H6.13657V10.2276ZM6.81841 4.77289C7.0116 4.77289 7.17365 4.70743 7.30456 4.57652C7.43548 4.4456 7.50071 4.28378 7.50025 4.09105C7.4998 3.89831 7.43434 3.73649 7.30388 3.60558C7.17342 3.47466 7.0116 3.40921 6.81841 3.40921C6.62522 3.40921 6.4634 3.47466 6.33294 3.60558C6.20248 3.73649 6.13702 3.89831 6.13657 4.09105C6.13612 4.28378 6.20157 4.44583 6.33294 4.5772C6.46431 4.70857 6.62613 4.7738 6.81841 4.77289ZM6.81841 13.6368C5.8752 13.6368 4.98881 13.4577 4.15923 13.0995C3.32966 12.7413 2.60804 12.2556 1.99439 11.6424C1.38073 11.0292 0.895031 10.3076 0.537292 9.47759C0.179552 8.64756 0.000455424 7.76117 8.6309e-07 6.81841C-0.000453698 5.87565 0.178643 4.98926 0.537292 4.15923C0.89594 3.3292 1.38164 2.60759 1.99439 1.99439C2.60713 1.38118 3.32875 0.895485 4.15923 0.537291C4.98971 0.179097 5.87611 0 6.81841 0C7.76072 0 8.64711 0.179097 9.47759 0.537291C10.3081 0.895485 11.0297 1.38118 11.6424 1.99439C12.2552 2.60759 12.7411 3.3292 13.1002 4.15923C13.4593 4.98926 13.6382 5.87565 13.6368 6.81841C13.6355 7.76117 13.4564 8.64756 13.0995 9.47759C12.7427 10.3076 12.257 11.0292 11.6424 11.6424C11.0279 12.2556 10.3063 12.7416 9.47759 13.1002C8.64893 13.4589 7.76253 13.6377 6.81841 13.6368ZM6.81841 12.2731C8.34119 12.2731 9.63101 11.7447 10.6879 10.6879C11.7447 9.631 12.2731 8.34119 12.2731 6.81841C12.2731 5.29563 11.7447 4.00582 10.6879 2.94896C9.63101 1.89211 8.34119 1.36368 6.81841 1.36368C5.29563 1.36368 4.00582 1.89211 2.94896 2.94896C1.89211 4.00582 1.36368 5.29563 1.36368 6.81841C1.36368 8.34119 1.89211 9.631 2.94896 10.6879C4.00582 11.7447 5.29563 12.2731 6.81841 12.2731Z" fill="#0079E9"/>
</svg>
