<svg width="102" height="102" viewBox="0 0 102 102" fill="none" xmlns="http://www.w3.org/2000/svg">
<path d="M21.51 27.5256V68.6618C21.51 71.0922 23.4712 73.0621 25.8908 73.0621H76.1092C78.5288 73.0621 80.49 71.0922 80.49 68.6618V27.5256C80.49 25.0952 78.5288 23.1252 76.1092 23.1252H25.8908C23.4716 23.1252 21.51 25.0952 21.51 27.5256Z" fill="#F0C020"/>
<path d="M75.972 69.5555H32.0422C31.475 69.5555 31.0154 69.0939 31.0154 68.5241C31.0154 67.9544 31.475 67.4927 32.0422 67.4927H74.9452V27.6635C74.9452 27.0937 75.4048 26.6321 75.972 26.6321C76.5392 26.6321 76.9988 27.0937 76.9988 27.6635V68.5241C76.9988 69.0939 76.5392 69.5555 75.972 69.5555ZM27.935 69.5555H26.0276C25.4603 69.5555 25.0007 69.0939 25.0007 68.5241C25.0007 67.9544 25.4603 67.4927 26.0276 67.4927H27.935C28.5022 67.4927 28.9618 67.9544 28.9618 68.5241C28.9618 69.0939 28.5022 69.5555 27.935 69.5555Z" fill="#F8E5B0"/>
<path d="M70.1381 60.148C70.1381 62.5416 68.2011 64.4501 65.8624 64.4501H36.1372C33.7788 64.4501 31.8616 62.5239 31.8616 60.148C31.8616 57.7828 33.778 55.8533 36.1372 55.8533H65.8624C68.2208 55.8533 70.1381 57.7795 70.1381 60.148Z" fill="#EFF0F0"/>
<path d="M31.8616 39.0723C31.8616 35.3457 34.8738 32.3201 38.5839 32.3201C42.294 32.3201 45.2989 35.3457 45.2989 39.0723C45.2989 42.799 42.294 45.8172 38.5839 45.8172C34.8734 45.8172 31.8616 42.799 31.8616 39.0723Z" fill="#EFF0F0"/>
<path d="M56.7014 39.0723C56.7014 35.3457 59.7137 32.3201 63.4238 32.3201C67.1339 32.3201 70.1388 35.3457 70.1388 39.0723C70.1388 42.799 67.1339 45.8172 63.4238 45.8172C59.7133 45.8172 56.7014 42.799 56.7014 39.0723Z" fill="#EFF0F0"/>
<path d="M51.0003 13.1067C54.32 13.1067 57.0112 10.4035 57.0112 7.06899C57.0112 3.73444 54.32 1.03125 51.0003 1.03125C47.6805 1.03125 44.9893 3.73444 44.9893 7.06899C44.9893 10.4035 47.6805 13.1067 51.0003 13.1067Z" fill="#FC5D3D"/>
<path d="M93.2644 87.148H8.73511V83.4478C8.73511 82.3087 9.65473 81.385 10.7887 81.385H91.2108C92.3448 81.385 93.2644 82.3087 93.2644 83.4478V87.148Z" fill="#AFAFAF"/>
<path d="M98.9184 100.969H3.08171C1.94769 100.969 1.02808 100.045 1.02808 98.9058V89.2107C1.02808 88.0717 1.94769 87.1479 3.08171 87.1479H98.9179C100.052 87.1479 100.972 88.0717 100.972 89.2107V98.9058C100.972 100.045 100.052 100.969 98.9184 100.969Z" fill="#72C2E9"/>
<path d="M9.70968 96.6415C11.1016 96.6415 12.2299 95.5081 12.2299 94.1101C12.2299 92.712 11.1016 91.5786 9.70968 91.5786C8.31779 91.5786 7.18945 92.712 7.18945 94.1101C7.18945 95.5081 8.31779 96.6415 9.70968 96.6415Z" fill="white"/>
<path d="M23.4731 96.6415C24.865 96.6415 25.9933 95.5081 25.9933 94.1101C25.9933 92.712 24.865 91.5786 23.4731 91.5786C22.0812 91.5786 20.9529 92.712 20.9529 94.1101C20.9529 95.5081 22.0812 96.6415 23.4731 96.6415Z" fill="white"/>
<path d="M37.2368 96.6415C38.6287 96.6415 39.757 95.5081 39.757 94.1101C39.757 92.712 38.6287 91.5786 37.2368 91.5786C35.8449 91.5786 34.7166 92.712 34.7166 94.1101C34.7166 95.5081 35.8449 96.6415 37.2368 96.6415Z" fill="white"/>
<path d="M51 96.6415C52.3918 96.6415 53.5202 95.5081 53.5202 94.1101C53.5202 92.712 52.3918 91.5786 51 91.5786C49.6081 91.5786 48.4797 92.712 48.4797 94.1101C48.4797 95.5081 49.6081 96.6415 51 96.6415Z" fill="white"/>
<path d="M64.7634 96.6415C66.1553 96.6415 67.2836 95.5081 67.2836 94.1101C67.2836 92.712 66.1553 91.5786 64.7634 91.5786C63.3715 91.5786 62.2432 92.712 62.2432 94.1101C62.2432 95.5081 63.3715 96.6415 64.7634 96.6415Z" fill="white"/>
<path d="M78.5271 96.6415C79.9189 96.6415 81.0473 95.5081 81.0473 94.1101C81.0473 92.712 79.9189 91.5786 78.5271 91.5786C77.1352 91.5786 76.0068 92.712 76.0068 94.1101C76.0068 95.5081 77.1352 96.6415 78.5271 96.6415Z" fill="white"/>
<path d="M92.2905 96.6415C93.6824 96.6415 94.8107 95.5081 94.8107 94.1101C94.8107 92.712 93.6824 91.5786 92.2905 91.5786C90.8986 91.5786 89.7703 92.712 89.7703 94.1101C89.7703 95.5081 90.8986 96.6415 92.2905 96.6415Z" fill="white"/>
<path d="M25.8924 74.0948H76.1079C79.0898 74.0907 81.5172 71.6566 81.5172 68.6615V62.6794C81.5172 62.1101 81.0572 61.648 80.4904 61.648C79.9236 61.648 79.4636 62.1101 79.4636 62.6794V68.6615C79.4595 70.518 77.9562 72.0279 76.1079 72.032H25.8924C24.0442 72.0279 22.5409 70.518 22.5368 68.6615V27.5256C22.5409 25.6733 24.0442 24.1592 25.8924 24.1551H76.1079C77.9562 24.1592 79.4595 25.6733 79.4636 27.5256V54.4283C79.4636 54.9977 79.9236 55.4597 80.4904 55.4597C81.0572 55.4597 81.5172 54.9977 81.5172 54.4283V54.4242V27.5256C81.5172 24.5305 79.0898 22.0964 76.1079 22.0923H52.027V14.0545C55.4217 13.5524 58.0364 10.6146 58.0401 7.06706C58.0359 3.17255 54.8816 0 51.0002 0C47.1188 0 43.9644 3.17255 43.9644 7.06706C43.9644 10.6146 46.5787 13.5524 49.9734 14.0545V22.0923H25.8924C22.9101 22.0964 20.4832 24.5305 20.4832 27.5256V68.6615C20.4832 71.6566 22.9101 74.0907 25.8924 74.0948ZM46.0135 7.06706C46.0222 4.31532 48.2561 2.0669 51.0002 2.06277C53.7438 2.0669 55.9782 4.31532 55.9823 7.06706C55.9782 9.82293 53.7438 12.0713 51.0002 12.0755C48.2561 12.0713 46.0222 9.82293 46.0135 7.06706Z" fill="black"/>
<path d="M80.4902 59.5852C81.0573 59.5852 81.517 59.1235 81.517 58.5538C81.517 57.9842 81.0573 57.5225 80.4902 57.5225C79.9231 57.5225 79.4634 57.9842 79.4634 58.5538C79.4634 59.1235 79.9231 59.5852 80.4902 59.5852Z" fill="black"/>
<path d="M36.1357 65.4807H65.8642C68.7844 65.4807 71.1626 63.0879 71.1626 60.1464C71.1626 57.2131 68.7844 54.8244 65.8642 54.8203H36.1357C33.2159 54.8244 30.8378 57.2131 30.8333 60.1464C30.8374 63.0879 33.2155 65.4807 36.1357 65.4807ZM49.9731 63.418H42.4568V56.8831H49.9731V63.418ZM52.0268 56.8831H59.5472V63.418H52.0268V56.8831ZM69.113 60.1464C69.1089 61.9493 67.6508 63.4138 65.8642 63.418H61.6008V56.8831H65.8642C67.6508 56.8872 69.1089 58.3518 69.113 60.1464ZM36.1357 56.8831H40.4032V63.418H36.1357C34.3491 63.4138 32.8914 61.9493 32.8869 60.1464C32.891 58.3518 34.3491 56.8872 36.1357 56.8831Z" fill="black"/>
<path d="M38.5837 46.8496C42.8515 46.8496 46.3263 43.3594 46.3263 39.073C46.3263 34.7824 42.8515 31.2881 38.5837 31.2881C34.3125 31.2922 30.8378 34.7824 30.8333 39.073C30.8374 43.3594 34.3121 46.8496 38.5837 46.8496ZM38.5837 33.3509C41.7134 33.3591 44.264 35.9252 44.2727 39.073C44.264 42.2167 41.7138 44.7786 38.5837 44.7869C35.4498 44.7786 32.8951 42.2167 32.8869 39.073C32.8951 35.9252 35.4498 33.3591 38.5837 33.3509Z" fill="black"/>
<path d="M63.4247 31.2881C59.1532 31.2881 55.6743 34.7824 55.6743 39.073C55.6743 43.3594 59.1532 46.8496 63.4247 46.8496C67.6922 46.8496 71.1628 43.3594 71.1628 39.073C71.1628 34.7824 67.6922 31.2881 63.4247 31.2881ZM63.4247 44.7869C60.2909 44.7786 57.7358 42.2167 57.728 39.073C57.7362 35.9252 60.2909 33.355 63.4247 33.3509C66.5545 33.355 69.1051 35.9252 69.1133 39.073C69.1051 42.2167 66.5545 44.7786 63.4247 44.7869Z" fill="black"/>
<path d="M6.16211 94.1099C6.16211 96.0745 7.75327 97.6732 9.70956 97.6732C11.6659 97.6732 13.257 96.0745 13.257 94.1099C13.257 92.1454 11.6659 90.5471 9.70956 90.5471C7.75327 90.5471 6.16211 92.1454 6.16211 94.1099ZM11.203 94.1099C11.203 94.9371 10.5327 95.6104 9.70915 95.6104C8.88564 95.6104 8.21533 94.9375 8.21533 94.1099C8.21533 93.2828 8.88564 92.6099 9.70915 92.6099C10.5327 92.6099 11.203 93.2828 11.203 94.1099Z" fill="black"/>
<path d="M27.02 94.1099C27.02 92.1454 25.4289 90.5471 23.4726 90.5471C21.5167 90.5471 19.9255 92.1454 19.9255 94.1099C19.9255 96.0745 21.5167 97.6732 23.4726 97.6732C25.4289 97.6732 27.02 96.0745 27.02 94.1099ZM23.4726 95.6104C22.6491 95.6104 21.9792 94.9375 21.9792 94.1099C21.9792 93.2828 22.6491 92.6099 23.4726 92.6099C24.2961 92.6099 24.9664 93.2828 24.9664 94.1099C24.9664 94.9371 24.2961 95.6104 23.4726 95.6104Z" fill="black"/>
<path d="M40.7832 94.1099C40.7832 92.1454 39.1921 90.5471 37.2362 90.5471C35.2799 90.5471 33.6887 92.1454 33.6887 94.1099C33.6887 96.0745 35.2799 97.6732 37.2362 97.6732C39.1921 97.6732 40.7832 96.0745 40.7832 94.1099ZM35.7428 94.1099C35.7428 93.2828 36.4131 92.6099 37.2366 92.6099C38.0601 92.6099 38.73 93.2828 38.73 94.1099C38.73 94.9371 38.0601 95.6104 37.2366 95.6104C36.4131 95.6104 35.7428 94.9371 35.7428 94.1099Z" fill="black"/>
<path d="M54.5475 94.1099C54.5475 92.1454 52.9564 90.5471 51.0001 90.5471C49.0438 90.5471 47.4526 92.1454 47.4526 94.1099C47.4526 96.0745 49.0438 97.6732 51.0001 97.6732C52.9564 97.6732 54.5475 96.0745 54.5475 94.1099ZM49.5063 94.1099C49.5063 93.2828 50.1766 92.6099 51.0001 92.6099C51.8236 92.6099 52.4939 93.2828 52.4939 94.1099C52.4939 94.9371 51.8236 95.6104 51.0001 95.6104C50.1766 95.6104 49.5063 94.9371 49.5063 94.1099Z" fill="black"/>
<path d="M68.3103 94.1099C68.3103 92.1454 66.7192 90.5471 64.7629 90.5471C62.807 90.5471 61.2158 92.1454 61.2158 94.1099C61.2158 96.0745 62.807 97.6732 64.7629 97.6732C66.7192 97.6732 68.3103 96.0745 68.3103 94.1099ZM63.2699 94.1099C63.2699 93.2828 63.9398 92.6099 64.7633 92.6099C65.5868 92.6099 66.2571 93.2828 66.2571 94.1099C66.2571 94.9371 65.5868 95.6104 64.7633 95.6104C63.9398 95.6104 63.2699 94.9371 63.2699 94.1099Z" fill="black"/>
<path d="M82.074 94.1099C82.074 92.1454 80.4828 90.5471 78.5269 90.5471C76.5707 90.5471 74.9795 92.1454 74.9795 94.1099C74.9795 96.0745 76.5707 97.6732 78.5269 97.6732C80.4828 97.6732 82.074 96.0745 82.074 94.1099ZM77.0335 94.1099C77.0335 93.2828 77.7038 92.6099 78.5274 92.6099C79.3509 92.6099 80.0208 93.2828 80.0208 94.1099C80.0208 94.9371 79.3509 95.6104 78.5274 95.6104C77.7038 95.6104 77.0335 94.9371 77.0335 94.1099Z" fill="black"/>
<path d="M95.8378 94.1099C95.8378 92.1454 94.2467 90.5471 92.2904 90.5471C90.3341 90.5471 88.7429 92.1454 88.7429 94.1099C88.7429 96.0745 90.3341 97.6732 92.2904 97.6732C94.2467 97.6732 95.8378 96.0745 95.8378 94.1099ZM90.797 94.1099C90.797 93.2828 91.4673 92.6099 92.2908 92.6099C93.1143 92.6099 93.7846 93.2828 93.7846 94.1099C93.7846 94.9371 93.1143 95.6104 92.2908 95.6104C91.4673 95.6104 90.797 94.9371 90.797 94.1099Z" fill="black"/>
<path d="M98.9195 86.1167H94.2902V83.4474C94.2902 81.7436 92.9106 80.3533 91.2098 80.3533H87.7474C87.1805 80.3533 86.7205 80.8153 86.7205 81.3847C86.7205 81.954 87.1805 82.416 87.7474 82.416H87.7515H91.2098C91.777 82.416 92.2366 82.8822 92.2366 83.4474V86.1167C87.9967 86.1167 12.0996 86.1167 9.76258 86.1167V83.4474C9.76258 82.8822 10.2226 82.416 10.7894 82.416H79.5328C80.0955 82.416 80.5596 81.954 80.5596 81.3847C80.5596 80.8153 80.0955 80.3533 79.5328 80.3533H10.7898C9.08939 80.3533 7.70935 81.7436 7.70935 83.4474V86.1167H3.08045C1.38415 86.1167 0.00410727 87.5028 0 89.2108V98.9059C0.00410727 100.61 1.38415 102 3.08045 102H16.7741C17.3368 102 17.8009 101.538 17.8009 100.969C17.8009 100.403 17.3409 99.9414 16.7782 99.9372H16.7741H3.08045C2.51776 99.9372 2.05774 99.4752 2.05364 98.9059V89.2108C2.05774 88.6415 2.51776 88.1794 3.08045 88.1794H98.9195C99.4822 88.1794 99.9423 88.6415 99.9464 89.2108V98.9059C99.9423 99.4752 99.4822 99.9372 98.9195 99.9372H24.9886C24.4218 99.9372 23.9618 100.399 23.9618 100.969C23.9618 101.538 24.4218 102 24.9886 102H98.9195C100.616 102 101.996 100.61 102 98.9059V89.2108C101.996 87.5028 100.616 86.1167 98.9195 86.1167Z" fill="black"/>
<path d="M20.8813 102C21.4484 102 21.9081 101.538 21.9081 100.969C21.9081 100.399 21.4484 99.9373 20.8813 99.9373C20.3142 99.9373 19.8545 100.399 19.8545 100.969C19.8545 101.538 20.3142 102 20.8813 102Z" fill="black"/>
<path d="M83.6406 82.416C84.2077 82.416 84.6674 81.9543 84.6674 81.3847C84.6674 80.815 84.2077 80.3533 83.6406 80.3533C83.0735 80.3533 82.6138 80.815 82.6138 81.3847C82.6138 81.9543 83.0735 82.416 83.6406 82.416Z" fill="black"/>
</svg>
