<svg width="102" height="102" viewBox="0 0 102 102" fill="none" xmlns="http://www.w3.org/2000/svg">
<path d="M68.5694 102C68.2282 102 67.7165 101.83 67.3754 101.66C66.6931 101.15 66.352 100.47 66.5225 99.79C66.5225 99.62 70.7868 81.43 45.5424 61.54C44.6896 60.86 44.6896 59.67 45.3718 58.99C46.0541 58.14 47.4187 58.14 48.101 58.82C68.2282 74.8 70.9574 89.59 70.7868 96.73C86.991 86.36 96.0312 75.65 97.9075 64.77C99.4426 54.74 93.9843 48.62 93.8138 48.28C93.1315 47.43 93.3021 46.41 93.9843 45.73C94.8372 45.05 96.0312 45.22 96.7135 45.9C97.0546 46.24 103.536 53.55 101.66 65.11C99.6132 77.69 88.8672 90.1 69.2517 101.83C69.4222 101.83 68.9105 102 68.5694 102Z" fill="#D0D0D0"/>
<path d="M50.83 102C50.3182 102 49.9771 101.83 49.4654 101.49C48.7831 100.98 48.6125 100.13 48.9537 99.2801C49.2948 98.6001 56.4588 83.4701 37.1843 63.2401C36.5021 62.3901 36.5021 61.3701 37.3549 60.6901C38.2078 60.0101 39.4018 60.0101 40.084 60.8601C54.4119 75.9901 55.2648 88.7401 54.0708 95.5401C86.6497 72.4201 83.5794 53.0401 83.5794 52.8701C83.4089 52.0201 83.9206 51.3401 84.6029 50.8301C85.4557 50.4901 86.3086 50.6601 86.9908 51.1701C108.824 73.2701 93.8136 86.7001 93.8136 86.8701C92.9608 87.5501 91.7668 87.5501 90.914 86.8701C90.2317 86.1901 90.2317 85.0001 90.914 84.3201C91.4257 83.8101 101.489 74.4601 87.332 57.6301C86.3086 65.9601 80.5092 82.9601 51.6828 101.66C51.5122 101.83 51.1711 102 50.83 102Z" fill="#D0D0D0"/>
<path d="M84.0911 102H83.5794C82.556 101.66 81.8737 100.64 82.2148 99.79C82.3854 99.11 87.1614 82.45 64.8167 63.24C63.111 69.19 57.6527 82.11 41.7897 94.69C40.9368 95.37 39.7428 95.2 39.0606 94.52C38.3783 93.67 38.3783 92.65 39.2311 91.97C59.0173 76.33 61.7464 59.67 61.7464 59.5C61.917 58.82 62.2581 58.31 62.9404 57.97C63.6227 57.8 64.3049 57.8 64.9872 58.31C92.2785 79.9 86.4791 99.79 86.1379 100.64C85.7968 101.49 84.9439 102 84.0911 102Z" fill="#D0D0D0"/>
<path d="M48.6124 66.64C26.95 66.64 29.6791 56.1 32.5788 52.19C40.5956 41.48 70.9571 30.6 86.9907 30.6C105.412 30.6 102.513 40.8 98.5894 45.9C89.8904 57.63 64.646 66.64 48.6124 66.64ZM86.9907 35.87C73.8568 35.87 49.6358 44.71 41.619 52.36C40.0839 53.89 37.1842 57.97 48.7829 57.97C63.1108 57.97 84.9438 49.13 91.5961 41.31C93.8135 38.42 95.0075 35.87 86.9907 35.87Z" fill="#ED4C5C"/>
<path d="M34.114 68C52.9547 68 68.2281 52.7777 68.2281 34C68.2281 15.2223 52.9547 0 34.114 0C15.2734 0 0 15.2223 0 34C0 52.7777 15.2734 68 34.114 68Z" fill="#FF8736"/>
<path d="M9.89307 10.2C10.5754 13.09 11.7693 15.64 13.1339 18.19C14.4985 20.74 16.0336 23.29 17.5687 25.67C20.8096 30.43 24.221 35.19 27.9735 39.61C31.7261 44.03 35.6492 48.28 39.9134 52.19C42.1308 54.06 44.3483 55.93 46.7362 57.46C49.1242 59.16 51.6828 60.35 54.5825 61.2C51.6828 61.03 48.7831 59.84 46.054 58.48C43.3248 57.12 40.9368 55.42 38.5489 53.55C33.9435 49.81 29.6792 45.56 25.9267 41.14C22.1741 36.55 18.7627 31.79 15.863 26.52C14.4985 24.14 13.1339 21.42 11.9399 18.7C10.9165 15.98 10.0636 13.09 9.89307 10.2ZM0 33.15C2.04684 37.4 4.6054 41.31 7.67566 44.54C10.9165 47.77 14.669 50.32 18.9333 52.19C23.027 54.06 27.6324 55.42 31.8966 57.29C34.114 58.31 36.3315 59.33 38.2077 61.03C40.084 62.56 41.4486 64.94 41.7897 67.15C40.9368 64.94 39.4017 63.24 37.5254 62.05C35.6492 60.86 33.4318 60.01 31.2143 59.33C26.7795 57.8 22.1741 56.61 17.7393 54.57C13.3045 52.53 9.21079 49.81 6.14053 46.07C3.07026 42.16 1.02342 37.74 0 33.15ZM61.5758 54.23C58.8467 55.42 55.6059 55.93 52.5356 54.57C49.4654 53.21 47.7597 50.15 46.5657 47.43C44.1777 41.65 43.3248 35.7 42.1308 29.92C40.9368 24.14 39.5723 18.36 37.0137 13.26C34.4552 8.16003 30.1909 3.57003 24.5621 1.53003C27.4618 2.21003 30.3615 3.57003 32.7495 5.44003C35.1375 7.31003 37.1843 9.86003 38.7194 12.41C41.7897 17.68 43.3248 23.8 44.6894 29.58L46.3951 38.42C46.9068 41.31 47.5891 44.2 48.6125 46.92C49.6359 49.64 50.8299 52.19 53.2179 53.72C55.4353 55.08 58.6761 54.91 61.5758 54.23Z" fill="#231F20"/>
<path d="M53.9001 6.29016C55.4353 7.31016 56.6292 8.84016 57.4821 10.5402C58.3349 12.2402 59.1878 13.9402 59.6995 15.8102C60.8935 19.3802 61.4052 23.1202 61.5758 27.0302C61.9169 34.5102 60.0407 42.5002 55.7764 48.9602C53.559 52.1902 50.8299 54.9102 47.589 57.1202C44.3482 59.3302 40.7662 60.8602 37.0137 61.7102C29.6792 63.5802 21.8329 63.4102 14.4984 62.2202C22.0035 62.3902 29.5086 62.0502 36.3314 59.8402C43.3248 57.6302 49.4653 53.5502 53.3884 47.6002C57.4821 41.6502 59.1878 34.3402 59.3584 27.2002C59.3584 23.6302 59.0172 19.8902 58.3349 16.3202C57.6527 12.5802 56.6292 8.84016 53.9001 6.29016Z" fill="#231F20"/>
</svg>
