<svg width="25" height="25" viewBox="0 0 25 25" fill="none" xmlns="http://www.w3.org/2000/svg">
<path d="M22.2097 8.936C23.4597 7.686 22.8897 6.226 22.2097 5.516L19.2097 2.516C17.9497 1.266 16.4997 1.836 15.7897 2.516L14.0897 4.226H11.4997C9.59969 4.226 8.49968 5.226 7.93968 6.376L3.49968 10.816V14.816L2.78968 15.516C1.53968 16.776 2.10968 18.226 2.78968 18.936L5.78968 21.936C6.32968 22.476 6.90968 22.676 7.45968 22.676C8.16968 22.676 8.81968 22.326 9.20968 21.936L11.9097 19.226H15.4997C17.1997 19.226 18.0597 18.166 18.3697 17.126C19.4997 16.826 20.1197 15.966 20.3697 15.126C21.9197 14.726 22.4997 13.256 22.4997 12.226V9.226H21.9097L22.2097 8.936ZM20.4997 12.226C20.4997 12.676 20.3097 13.226 19.4997 13.226H18.4997V14.226C18.4997 14.676 18.3097 15.226 17.4997 15.226H16.4997V16.226C16.4997 16.676 16.3097 17.226 15.4997 17.226H11.0897L7.80968 20.506C7.49968 20.796 7.31968 20.626 7.20968 20.516L4.21968 17.536C3.92968 17.226 4.09968 17.046 4.20968 16.936L5.49968 15.636V11.636L7.49968 9.636V11.226C7.49968 12.436 8.29969 14.226 10.4997 14.226C12.6997 14.226 13.4997 12.436 13.4997 11.226H20.4997V12.226ZM20.7897 7.516L19.0897 9.226H11.4997V11.226C11.4997 11.676 11.3097 12.226 10.4997 12.226C9.68969 12.226 9.49968 11.676 9.49968 11.226V8.226C9.49968 7.766 9.66969 6.226 11.4997 6.226H14.9097L17.1897 3.946C17.4997 3.656 17.6797 3.826 17.7897 3.936L20.7797 6.916C21.0697 7.226 20.8997 7.406 20.7897 7.516Z" fill="#699BF7"/>
</svg>
