<svg width="456" height="456" viewBox="0 0 456 456" fill="none" xmlns="http://www.w3.org/2000/svg">
<path d="M319.07 331.09C372.096 278.062 372.095 192.088 319.066 139.062C266.038 86.0353 180.064 86.0368 127.038 139.065C74.0117 192.093 74.0132 278.067 127.041 331.093C180.069 384.12 266.044 384.118 319.07 331.09Z" fill="#EEEDF7"/>
<path d="M266.602 395.174C266.602 398.539 249.769 401.266 229.006 401.266C208.243 401.266 191.411 398.539 191.411 395.174C191.411 391.809 208.243 389.082 229.006 389.082C249.769 389.082 266.602 391.809 266.602 395.174Z" fill="#8CD2FE"/>
<path d="M191.412 156.052H267.114V395.174H191.412V156.052Z" fill="#8CD2FE"/>
<path opacity="0.2" d="M267.113 198.333L191.412 179.147V156.052H267.113V198.333Z" fill="#395B64"/>
<path d="M247.158 99.2893C244.992 99.2893 242.993 98.5248 241.256 97.0078L243.641 94.2749C245.375 95.7873 247.409 96.0563 249.853 95.1002C255.635 92.8385 261.799 84.2657 262.533 77.4622C262.834 74.6775 262.163 72.7182 260.542 71.6345C255.69 68.4014 250.859 74.8067 250.654 75.0818L247.736 72.9295C250.157 69.6357 256.371 64.4966 262.553 68.6173C265.31 70.4565 266.584 73.7351 266.14 77.8513C265.267 85.924 258.134 95.7538 251.174 98.4762C249.789 99.0203 248.444 99.2893 247.158 99.2893Z" fill="#D3C848"/>
<g opacity="0.2">
<path d="M257.587 70.7439C257.293 69.5294 257.324 68.2587 257.759 67.1005C253.378 67.0777 249.523 70.5022 247.737 72.9327L250.656 75.085C250.817 74.8661 253.898 70.8001 257.587 70.7439ZM248.547 95.491C246.673 95.9014 245.056 95.5093 243.641 94.2765L241.256 97.0095C242.993 98.5249 244.992 99.291 247.158 99.291C247.453 99.291 247.752 99.2728 248.053 99.2439C247.869 97.9701 248.076 96.6842 248.547 95.491Z" fill="#395B64"/>
</g>
<path d="M211.37 99.2925C213.536 99.2925 215.534 98.5279 217.272 97.011L214.887 94.278C213.153 95.7904 211.119 96.061 208.675 95.1034C202.891 92.8416 196.728 84.2703 195.992 77.4668C195.691 74.6822 196.36 72.7229 197.983 71.6391C202.835 68.4061 207.665 74.8099 207.871 75.085L210.789 72.9327C208.368 69.6388 202.152 64.5012 195.972 68.6219C193.215 70.4611 191.941 73.7398 192.386 77.8559C193.26 85.9287 200.394 95.7585 207.354 98.4793C208.739 99.0235 210.084 99.2925 211.37 99.2925Z" fill="#D3C848"/>
<g opacity="0.2">
<path d="M200.938 70.7469C201.231 69.5324 201.199 68.2617 200.766 67.1019C205.147 67.0791 209.001 70.5022 210.789 72.9342L207.871 75.0865C207.708 74.8676 204.627 70.8016 200.938 70.7469ZM209.98 95.494C211.855 95.9044 213.472 95.5122 214.887 94.278L217.272 97.011C215.534 98.5279 213.536 99.2925 211.37 99.2925C211.075 99.2925 210.775 99.2742 210.474 99.2469C210.657 97.9716 210.452 96.6872 209.98 95.494Z" fill="#395B64"/>
</g>
<path d="M239.288 134.014C232.453 135.542 225.365 135.543 218.53 134.015C220.554 124.964 224.601 116.134 224.6 106.859H233.217C233.217 116.133 237.266 124.962 239.288 134.014Z" fill="#D3C848"/>
<path d="M254.755 60.1463C254.755 56.5774 243.18 53.6848 228.904 53.6848C214.629 53.6863 203.054 56.5804 203.054 60.1494C200.471 95.6216 228.907 114.865 228.907 114.865C228.907 114.865 257.342 95.6201 254.755 60.1463Z" fill="#D3C848"/>
<path opacity="0.2" d="M254.755 60.1464C254.755 58.7541 252.975 57.4682 249.979 56.4133C252.273 61.4415 252.352 67.2783 251.09 72.6712C250.422 75.5288 246.846 76.0593 245.638 87.5353C243.559 107.285 233.027 91.6971 232.783 102.881C232.748 104.527 232.511 106.091 231.724 107.532C230.959 108.932 229.854 110.229 229.795 111.896C229.73 113.723 230.455 115.579 231.008 117.291C232.014 120.407 232.66 123.733 230.938 126.739C228.679 130.684 223.592 130.542 219.637 129.694C219.236 131.13 218.853 132.57 218.53 134.014C225.365 135.542 232.453 135.541 239.288 134.012C237.578 126.362 234.43 118.87 233.493 111.135C241.423 103.959 256.681 86.5519 254.755 60.1464Z" fill="#395B64"/>
<path d="M229.12 64.2185L232.475 71.0129L239.972 72.1012L234.547 77.3908L235.828 84.8571L229.122 81.3322L222.416 84.8586L223.697 77.3908L218.271 72.1027L225.769 71.0129L229.12 64.2185Z" fill="#E2D661"/>
<path d="M207.152 131.668H251.528V149.212H207.152V131.668Z" fill="#395B64"/>
<path d="M241.978 134.677L216.703 134.678C213.52 134.678 210.941 137.259 210.941 140.44C210.941 143.623 213.52 146.203 216.703 146.203L241.978 146.201C245.161 146.201 247.74 143.62 247.74 140.439C247.74 137.257 245.159 134.677 241.978 134.677Z" fill="#D3C848"/>
<path d="M271.902 149.301H186.621C182.892 149.301 179.871 152.322 179.871 156.051C179.871 159.779 182.892 162.801 186.621 162.801H271.902C275.631 162.801 278.652 159.779 278.652 156.051C278.654 152.324 275.631 149.301 271.902 149.301Z" fill="#8CD2FE"/>
<path d="M221.89 210.082L224.154 401.266C226.085 408.641 268.736 427.293 268.736 427.293L274.95 424.486L229.807 401.265L229.747 392.707L259.861 387.136V398.652C261.408 403.098 309.259 418.476 309.259 418.476C312.009 420.023 314.058 413.144 314.058 413.144L266.725 395.256L264.355 201.488C264.336 199.793 263.035 198.729 261.449 199.119C259.865 199.505 258.596 201.192 258.617 202.887L258.798 217.628L227.805 223.198L227.628 208.682C227.606 206.988 226.305 205.925 224.721 206.313C223.136 206.7 221.868 208.388 221.89 210.082ZM229.268 358.687L260.261 353.116L260.689 383.04L229.696 388.611L229.268 358.687ZM229.04 324.184L260.033 318.613L260.209 349.016L229.216 354.587L229.04 324.184ZM228.749 300.36L259.742 294.789L259.984 314.515L228.991 320.086L228.749 300.36ZM228.458 276.535L259.45 270.964L259.692 290.691L228.699 296.262L228.458 276.535ZM228.166 252.709L259.159 247.138L259.4 266.865L228.407 272.436L228.166 252.709ZM227.856 227.299L258.848 221.729L259.108 243.04L228.116 248.611L227.856 227.299Z" fill="#EEEDF7"/>
<path d="M219.987 194.119L229.224 238.383C229.167 238.639 229.155 238.918 229.201 239.215C229.259 239.589 229.417 239.929 229.613 240.245L268.47 426.441C268.847 428.249 270.083 429.51 271.473 429.684C271.84 429.73 272.218 429.701 272.594 429.584C274.38 429.034 275.432 426.751 274.951 424.486L266.237 383.399L299.583 377.931L308.492 416.748C308.882 418.45 310.03 419.646 311.287 419.824C311.618 419.871 311.959 419.848 312.293 419.743C313.888 419.248 314.772 417.115 314.275 414.983L263.554 196.899C263.161 195.208 261.607 193.806 260.081 193.767C258.547 193.727 257.616 195.075 258.006 196.781L261.443 211.754L229.38 209.623L226.123 194.267C225.747 192.491 224.075 191.017 222.388 190.968C220.692 190.92 219.613 192.329 219.987 194.119ZM262.408 215.962L267.503 238.16L235.217 237.144L230.309 214.005L262.408 215.962ZM236.175 241.662L268.497 242.492L273.348 263.626L240.853 263.72L236.175 241.662ZM241.84 268.368L274.371 268.078L279.358 289.806L246.656 291.074L241.84 268.368ZM247.669 295.859L280.407 294.383L285.535 316.729L252.629 319.238L247.669 295.859ZM253.674 324.169L286.617 321.439L291.893 344.432L258.783 348.256L253.674 324.169ZM265.124 378.162L259.859 353.336L293.004 349.278L298.435 372.944L265.124 378.162Z" fill="#395B64"/>
<path opacity="0.2" d="M219.987 194.119L229.225 238.385C229.169 238.64 229.155 238.92 229.201 239.216C229.259 239.59 229.417 239.93 229.613 240.247L268.47 426.442C268.847 428.251 270.083 429.511 271.474 429.686C271.84 429.731 272.218 429.702 272.592 429.585C274.378 429.035 275.43 426.752 274.95 424.487L266.236 383.4L299.581 377.933L308.49 416.749C308.881 418.451 310.028 419.648 311.285 419.827C311.617 419.874 311.957 419.85 312.292 419.746C313.886 419.249 314.771 417.117 314.274 414.986L305.066 375.393C304.094 374.145 303.181 372.845 302.36 371.468C300.802 368.854 299.545 366.054 298.596 363.13C297.399 359.434 296.671 355.555 295.654 351.798C294.622 347.989 293.413 344.266 292.056 340.577C290.697 336.888 289.645 333.033 288.615 329.227C284.529 314.149 281.972 298.665 278.583 283.399C277.719 279.514 276.804 275.641 275.793 271.797C275.099 269.156 274.317 266.549 273.535 263.94C272.218 265.848 269.06 265.726 267.11 265.752C263.574 265.799 260.051 266.193 256.512 266.125C254.257 266.081 251.98 265.938 249.722 265.827C247.567 265.722 245.323 265.541 243.284 264.775C242.618 264.524 242.014 264.167 241.537 263.718L240.853 263.72L236.175 241.663L268.497 242.493L270.069 249.342C269.49 245.691 269.07 242.007 268.693 238.331C268.297 234.471 267.952 230.605 267.531 226.748C267.132 223.096 266.342 219.518 265.538 215.949C263.969 208.983 262.276 201.996 262.291 194.767C261.654 194.172 260.865 193.788 260.08 193.767C258.546 193.727 257.614 195.075 258.005 196.781L261.442 211.754L260.367 211.683C260.315 211.944 260.148 212.142 259.871 212.206C257.923 212.656 255.935 212.75 253.951 212.776C251.939 212.803 249.953 212.855 247.945 212.969C243.846 213.198 239.71 212.908 235.693 212.081C232.61 211.446 229.523 210.721 227.31 208.242C225.415 206.117 224.351 203.282 223.627 200.502C222.818 197.396 222.431 194.192 222.124 190.99C220.585 191.091 219.634 192.427 219.987 194.119ZM259.859 353.336L293.004 349.278L298.294 372.322C298.403 372.467 298.447 372.651 298.409 372.827L298.437 372.943L298.371 372.953C298.33 373.034 298.273 373.11 298.181 373.174C293.138 376.761 286.909 378.456 280.966 379.275C277.19 379.795 273.115 380.571 269.341 379.91C267.988 379.673 266.6 379.144 265.783 378.059L265.126 378.162L259.859 353.336ZM253.674 324.169L286.616 321.437L291.893 344.43L291.428 344.484C291.414 344.537 291.408 344.589 291.378 344.645C290.636 346.023 289.157 346.584 287.788 346.999C286.094 347.511 284.365 347.96 282.633 348.296C279.958 348.817 277.239 349.142 274.529 349.339C272.484 349.488 270.435 349.574 268.386 349.567C266.222 349.56 263.995 349.498 261.885 348.966C261.252 348.807 260.479 348.541 259.849 348.129L258.782 348.252L253.674 324.169ZM247.67 295.859L280.408 294.383L285.537 316.728L284.441 316.812C284.395 316.963 284.29 317.099 284.114 317.184C279.84 319.227 275.041 319.44 270.449 319.753C265.536 320.089 260.572 321.244 255.675 320.323C254.901 320.177 254.121 319.949 253.519 319.398C253.449 319.334 253.396 319.255 253.332 319.185L252.629 319.238L247.67 295.859ZM246.047 288.206L241.84 268.368L274.369 268.078L279.356 289.806L277.535 289.876C276.351 290.993 274.564 291.083 273.041 291.285C270.171 291.667 267.262 291.816 264.38 292.022C262.068 292.188 259.795 292.524 257.494 292.808C255.479 293.057 253.375 293.234 251.382 292.779C250.055 292.477 248.88 291.88 247.891 291.025L246.657 291.072L246.226 289.046C246.178 288.967 246.125 288.896 246.079 288.815C245.957 288.605 245.971 288.391 246.047 288.206ZM230.309 214.005L262.408 215.962L267.173 236.723C267.69 236.737 267.829 237.505 267.432 237.853L267.502 238.161L266.611 238.132C260.837 239.611 254.913 240.485 248.987 240.611C246.831 240.657 244.636 240.674 242.493 240.415C240.767 240.207 238.977 239.797 237.518 238.774C236.889 238.331 236.4 237.787 236.038 237.172L235.215 237.146L230.309 214.005Z" fill="#2B4C54"/>
<path d="M336.291 388.39L337.023 389.945C337.023 389.945 333.737 395.749 327.773 399.72C322.883 402.976 320.054 403.511 319.122 401.824L336.291 388.39Z" fill="#395B64"/>
<path d="M319.852 398.781C323.42 393.241 328.624 385.343 328.624 385.343C328.624 385.343 331.311 382.762 333.327 383.859C334.581 384.542 334.915 386.551 336.517 388.711C337.458 389.979 328.952 398.848 323.28 401.502C321.925 402.136 316.762 403.58 319.852 398.781Z" fill="#2B4C54"/>
<path d="M330.609 377.612C330.708 377.861 332.974 384.507 332.974 384.507C332.974 384.507 332.871 387.819 329.797 388.395C326.724 388.969 323.765 380.342 323.765 380.342L330.609 377.612Z" fill="#F5B297"/>
<path d="M329.338 389.778C329.338 389.778 328.673 384.677 326.312 384.25C323.952 383.823 325.089 390.728 325.089 390.728C325.089 390.728 320.294 397.158 320.202 398.237C320.111 399.318 324.465 398.84 329.338 389.778Z" fill="#395B64"/>
<path d="M316.058 283.611C316.058 283.611 304.635 298.037 299.793 326.239C297 342.5 323.848 383.017 323.848 383.017L332.08 379.846L323.258 335.092L348.11 278.932L316.058 283.611Z" fill="#2B4C54"/>
<path d="M342.875 410.748L342.98 412.463C342.98 412.463 337.779 416.637 330.767 418.115C325.02 419.328 322.193 418.778 321.954 416.866L342.875 410.748Z" fill="#395B64"/>
<path d="M323.759 414.311C329.124 410.487 336.884 405.079 336.884 405.079C336.884 405.079 340.336 403.677 341.802 405.442C342.714 406.539 342.281 408.53 342.97 411.131C343.374 412.657 332.188 417.746 325.935 418.108C324.441 418.195 319.11 417.625 323.759 414.311Z" fill="#2B4C54"/>
<path d="M341.59 398.632C341.59 398.9 341.232 405.911 341.232 405.911C341.232 405.911 339.908 408.95 336.841 408.346C333.774 407.743 334.221 398.632 334.221 398.632H341.59Z" fill="#F5B297"/>
<path d="M335.905 409.462C335.905 409.462 337.177 404.478 335.142 403.206C333.108 401.935 331.606 408.771 331.606 408.771C331.606 408.771 324.771 412.967 324.286 413.936C323.799 414.905 328.021 416.074 335.905 409.462Z" fill="#395B64"/>
<path d="M351.102 278.358L325.724 284.503C325.724 284.503 320.259 347.357 333.044 402.346C333.044 402.346 336.423 405.372 342.088 402.02C342.088 402.02 345.9 330.865 348.691 318.606C351.48 306.347 357.446 291.226 351.102 278.358Z" fill="#395B64"/>
<path d="M354.13 236.371C354.13 236.371 372.873 260.46 367.883 268.949C363.985 275.579 350.814 255.097 350.814 255.097L354.13 236.371Z" fill="#FA9C70"/>
<path d="M315.256 237.898C315.256 237.898 296.204 255.494 302.722 263.063C310.937 272.603 320.433 247.366 320.433 247.366L315.256 237.898Z" fill="#FDAE88"/>
<path d="M352.353 257.531C350.118 258.173 347.811 258.757 345.897 259.765C342.947 253.835 339.924 247.643 338.449 244.27C331.76 229.038 334.739 223.036 334.739 223.036C349.767 224.846 357.581 237.015 362.692 248.29C362.692 248.29 355.683 256.581 352.353 257.531ZM320.814 250.491C322.957 246.193 325.155 241.7 326.23 239.248C331.076 228.195 328.92 223.84 328.92 223.84C321.623 224.527 315.812 231.254 310.566 239.362C310.566 239.362 308.203 243.244 308.747 244.337C310.475 247.81 317.39 248.666 320.814 250.491Z" fill="#77C6EE"/>
<path opacity="0.1" d="M323.108 237.254C322.725 237.547 322.324 237.818 321.9 238.047C320.512 238.799 318.712 239.015 317.475 240C316.601 240.695 316.28 241.838 315.847 242.821C315.388 243.861 314.754 244.79 313.766 245.392C312.986 245.868 312.089 246.219 311.158 246.418C313.36 248.781 317.802 248.885 320.814 250.49C322.957 246.191 325.155 241.698 326.23 239.246C326.42 238.812 326.581 238.406 326.751 237.992C326.677 238.02 326.602 238.049 326.528 238.078C325.3 238.547 324.028 238.096 323.108 237.254ZM353.493 251.578C352.984 250.979 349.494 239.445 348.89 238.936C348.159 238.319 347.995 248.474 347.087 248.555C345.2 248.722 343.327 249.385 341.421 249.018C341.108 248.959 340.813 248.871 340.526 248.774C342.056 251.995 343.991 255.933 345.897 259.765C347.811 258.757 350.118 258.173 352.353 257.53C354.069 257.041 356.451 254.953 358.36 253.042C355.736 253.641 355.347 253.756 353.493 251.578Z" fill="#231F20"/>
<path d="M332.467 222.779C332.467 222.779 318.476 223.212 316.663 242.247C314.85 261.283 307.855 283.564 313.295 287.025C318.735 290.486 348.787 290.486 354.227 286.591C359.667 282.697 352.154 247.871 350.082 240.516C348.012 233.162 346.197 223.21 332.467 222.779Z" fill="#8CD2FE"/>
<path opacity="0.1" d="M354.849 264.003C354.698 266.67 354.399 269.329 353.78 271.954C352.801 276.113 350.919 280.475 347.197 283.488C342.994 286.889 337.338 287.187 331.846 287.718C326.189 288.263 320.416 288.587 315.13 286.485C313.865 285.982 312.736 285.334 311.722 284.593C312.045 285.714 312.55 286.55 313.295 287.025C318.735 290.486 348.787 290.486 354.227 286.591C357.025 284.591 356.398 274.418 354.849 264.003Z" fill="#231F20"/>
<path d="M305.903 264.003C318.271 258.576 289.878 227.618 289.878 227.618L285.891 230.786C285.891 230.785 298.365 267.31 305.903 264.003Z" fill="#FDAE88"/>
<path d="M290.978 231.855C290.978 231.855 289.679 228.216 289.878 227.618C290.217 226.602 290.616 227.208 290.185 223.344C289.885 220.672 291.442 219.477 290.708 218.892C289.262 217.742 287.818 222.177 287.818 222.177C287.818 222.177 286.666 213.359 285.143 213.793C284.322 214.027 285.228 220.643 285.228 220.643C285.228 220.643 284.251 219.42 283.591 219.857C282.62 220.502 283.222 221.812 283.222 221.812C283.222 221.812 282.48 221.359 281.917 222.037C281.274 222.811 281.989 223.668 281.989 223.668C281.989 223.668 281.41 223.315 280.998 223.571C280.584 223.828 279.99 224.522 281.595 226.592C282.902 228.278 285.88 228.834 287.116 233.828L290.978 231.855Z" fill="#FDAE88"/>
<path d="M284.083 225.229C284.43 225.17 284.745 224.968 284.942 224.715C285.272 224.293 285.261 223.785 284.913 223.393C284.906 223.385 284.898 223.378 284.889 223.374C284.879 223.369 284.869 223.366 284.858 223.366C284.848 223.365 284.837 223.367 284.827 223.37C284.818 223.374 284.809 223.38 284.801 223.387C284.767 223.416 284.764 223.467 284.795 223.499C285.093 223.835 285.102 224.253 284.818 224.616C284.527 224.989 283.942 225.243 283.434 224.977C282.507 224.492 282.069 223.639 282.065 223.63C282.054 223.612 282.038 223.6 282.018 223.594C281.998 223.588 281.978 223.591 281.959 223.6C281.941 223.609 281.927 223.625 281.92 223.644C281.913 223.663 281.914 223.684 281.922 223.703C281.94 223.739 282.387 224.61 283.36 225.118C283.595 225.243 283.846 225.27 284.083 225.229Z" fill="#FA9C70"/>
<path d="M285.781 223.977C285.9 223.957 286.006 223.893 286.093 223.787C286.506 223.277 286.395 221.742 285.287 220.587C285.28 220.579 285.272 220.573 285.262 220.569C285.252 220.565 285.242 220.562 285.232 220.562C285.221 220.562 285.211 220.564 285.201 220.567C285.191 220.571 285.182 220.577 285.175 220.584C285.167 220.591 285.161 220.6 285.157 220.609C285.153 220.619 285.15 220.629 285.15 220.639C285.15 220.65 285.151 220.66 285.155 220.67C285.159 220.68 285.165 220.689 285.172 220.696C286.184 221.753 286.35 223.215 285.968 223.685C285.79 223.904 285.549 223.823 285.379 223.717C284.33 223.063 283.296 221.774 283.285 221.76C283.279 221.752 283.271 221.745 283.262 221.74C283.252 221.735 283.242 221.732 283.232 221.731C283.221 221.73 283.211 221.731 283.201 221.734C283.191 221.737 283.181 221.742 283.173 221.748C283.138 221.776 283.133 221.826 283.161 221.861C283.171 221.874 284.222 223.185 285.293 223.853C285.468 223.961 285.634 224.002 285.781 223.977ZM282.577 226.474C282.801 226.436 282.983 226.323 283.112 226.182C283.43 225.834 283.512 225.208 283.039 224.733C283.032 224.726 283.023 224.72 283.014 224.716C283.004 224.712 282.993 224.71 282.983 224.71C282.972 224.71 282.962 224.712 282.952 224.716C282.943 224.72 282.934 224.726 282.927 224.733C282.895 224.764 282.895 224.816 282.927 224.846C283.33 225.25 283.263 225.781 282.995 226.074C282.74 226.354 282.22 226.495 281.592 225.977C281.084 225.557 280.736 224.717 280.733 224.709C280.725 224.69 280.709 224.674 280.69 224.666C280.67 224.658 280.648 224.657 280.629 224.665C280.609 224.673 280.593 224.689 280.585 224.708C280.577 224.728 280.576 224.75 280.584 224.77C280.6 224.806 280.951 225.656 281.489 226.101C281.901 226.44 282.276 226.526 282.577 226.474ZM286.678 227.108C286.705 227.103 286.728 227.085 286.739 227.058C286.754 227.017 286.734 226.971 286.693 226.954C286.16 226.749 285.83 226.436 285.714 226.022C285.456 225.107 286.31 223.98 286.319 223.969C286.347 223.934 286.339 223.884 286.304 223.856C286.296 223.85 286.286 223.845 286.276 223.842C286.266 223.839 286.255 223.839 286.245 223.84C286.234 223.842 286.224 223.845 286.215 223.851C286.206 223.856 286.198 223.863 286.192 223.872C286.154 223.92 285.281 225.072 285.559 226.065C285.69 226.53 286.052 226.88 286.636 227.103C286.651 227.109 286.664 227.111 286.678 227.108ZM286.511 229.673C286.575 229.663 286.637 229.645 286.698 229.619C287.228 229.398 287.543 228.692 287.64 228.438C287.909 228.576 288.172 228.608 288.425 228.533C288.938 228.383 289.213 227.845 289.224 227.822C289.244 227.783 289.229 227.735 289.189 227.716C289.17 227.706 289.148 227.704 289.128 227.711C289.108 227.717 289.091 227.732 289.081 227.751C289.078 227.755 288.824 228.251 288.379 228.381C288.145 228.45 287.896 228.407 287.639 228.254C287.628 228.248 287.617 228.244 287.605 228.243C287.593 228.242 287.582 228.244 287.57 228.248C287.548 228.257 287.531 228.275 287.523 228.298C287.52 228.307 287.209 229.236 286.639 229.471C286.438 229.555 286.227 229.541 286.008 229.432C285.998 229.427 285.988 229.424 285.977 229.423C285.967 229.423 285.956 229.424 285.946 229.428C285.936 229.431 285.927 229.436 285.919 229.443C285.911 229.45 285.905 229.459 285.9 229.468C285.88 229.508 285.897 229.556 285.936 229.576C286.131 229.672 286.324 229.705 286.511 229.673ZM285.645 227.12C285.675 227.115 285.701 227.093 285.708 227.062C285.71 227.055 285.914 226.232 284.948 225.794C284.909 225.776 284.86 225.794 284.842 225.834C284.824 225.875 284.842 225.922 284.881 225.94C285.72 226.32 285.559 226.994 285.553 227.021C285.55 227.034 285.55 227.048 285.553 227.06C285.557 227.073 285.563 227.085 285.572 227.095C285.581 227.105 285.593 227.112 285.605 227.117C285.618 227.121 285.631 227.122 285.645 227.12ZM286.371 216.822C286.408 216.816 286.435 216.785 286.438 216.747C286.439 216.726 286.431 216.706 286.417 216.69C286.403 216.674 286.383 216.665 286.362 216.664L285.559 216.627C285.549 216.627 285.538 216.628 285.528 216.632C285.519 216.635 285.509 216.641 285.502 216.648C285.494 216.655 285.488 216.663 285.483 216.673C285.479 216.682 285.476 216.693 285.476 216.703C285.474 216.747 285.508 216.785 285.552 216.787L286.354 216.823C286.36 216.822 286.367 216.822 286.371 216.822ZM286.76 219.272C286.8 219.266 286.829 219.231 286.827 219.19C286.826 219.169 286.817 219.149 286.801 219.134C286.786 219.12 286.765 219.112 286.743 219.113L285.806 219.149C285.795 219.149 285.785 219.152 285.775 219.156C285.766 219.161 285.757 219.167 285.75 219.175C285.743 219.183 285.738 219.192 285.734 219.202C285.731 219.212 285.729 219.222 285.73 219.233C285.731 219.277 285.769 219.312 285.813 219.31L286.751 219.274C286.754 219.274 286.757 219.274 286.76 219.272ZM286.671 219.605C286.704 219.599 286.731 219.572 286.736 219.537C286.737 219.526 286.736 219.515 286.734 219.505C286.731 219.495 286.726 219.486 286.72 219.477C286.713 219.469 286.705 219.462 286.696 219.457C286.687 219.452 286.676 219.448 286.666 219.447L286.088 219.374C286.078 219.373 286.067 219.373 286.057 219.376C286.047 219.379 286.037 219.384 286.029 219.39C286.021 219.397 286.014 219.405 286.009 219.414C286.003 219.423 286 219.433 285.999 219.444C285.997 219.454 285.998 219.465 286.001 219.475C286.004 219.485 286.009 219.495 286.015 219.503C286.022 219.512 286.03 219.518 286.039 219.524C286.048 219.529 286.058 219.532 286.069 219.534L286.646 219.607C286.655 219.607 286.663 219.607 286.671 219.605Z" fill="#FA9C70"/>
<path d="M330.881 218.942L329.738 225.053C329.738 225.053 330.775 230.835 338.691 226.588L336.928 217.796L330.881 218.942Z" fill="#FDAE88"/>
<path opacity="0.15" d="M336.928 217.796L330.881 218.942L330.386 221.593C330.529 221.637 330.673 221.68 330.816 221.721C331.503 221.915 332.205 222.08 332.877 222.304C333.403 222.481 333.926 222.703 334.31 223.026C334.715 223.365 334.911 223.785 334.931 224.229C334.965 224.958 334.437 225.586 334.06 226.232C333.818 226.646 333.681 227.206 333.158 227.489C332.78 227.694 332.286 227.761 331.801 227.746C333.123 228.386 335.26 228.43 338.689 226.589L336.928 217.796Z" fill="#33133F"/>
<path d="M331.848 198.374C331.848 198.374 318.919 213.657 325.079 217.722C331.238 221.788 339.515 217.508 339.515 217.508C339.515 217.508 342.409 218.607 344.423 215.515C346.046 213.022 344.186 212.575 344.186 212.575C344.186 212.575 349.179 206.706 345.335 202.794C341.489 198.883 331.848 198.374 331.848 198.374Z" fill="#FDAE88"/>
<path opacity="0.05" d="M336.181 212.593C336.013 213.049 335.318 213.212 334.628 212.958C333.939 212.703 333.517 212.128 333.684 211.672C333.853 211.216 334.547 211.054 335.238 211.307C335.928 211.561 336.35 212.137 336.181 212.593ZM329.039 208.55C328.87 209.006 328.176 209.169 327.487 208.913C326.798 208.66 326.376 208.083 326.543 207.627C326.712 207.171 327.406 207.009 328.095 207.264C328.785 207.518 329.208 208.094 329.039 208.55Z" fill="#33133F"/>
<path d="M331.58 204.817C331.52 204.782 331.478 204.717 331.478 204.642C331.478 204.577 331.442 203.064 329.352 202.847C329.24 202.835 329.159 202.736 329.171 202.625C329.183 202.514 329.282 202.434 329.393 202.444C331.857 202.7 331.883 204.622 331.883 204.642C331.883 204.755 331.792 204.844 331.681 204.844C331.644 204.843 331.609 204.834 331.58 204.817ZM334.97 206.802C334.948 206.789 334.928 206.772 334.912 206.752C334.842 206.664 334.857 206.538 334.944 206.468C334.959 206.456 336.478 205.29 338.504 207.108C338.588 207.182 338.594 207.31 338.519 207.393C338.445 207.477 338.317 207.485 338.233 207.409C336.458 205.814 335.209 206.773 335.196 206.784C335.165 206.81 335.127 206.826 335.086 206.829C335.046 206.832 335.005 206.823 334.97 206.802ZM330.448 210.053C330.387 210.018 330.332 209.976 330.284 209.926C329.974 209.603 330.057 209.094 330.06 209.073C330.071 209.009 330.11 208.956 330.168 208.927C331.354 208.321 331.936 206.918 331.941 206.904C331.983 206.801 332.102 206.75 332.205 206.793C332.311 206.836 332.359 206.954 332.316 207.057C332.292 207.12 331.702 208.54 330.452 209.236C330.449 209.357 330.471 209.538 330.577 209.648C330.676 209.749 330.848 209.786 331.086 209.754C331.113 209.75 331.139 209.752 331.165 209.759C331.191 209.766 331.215 209.778 331.236 209.794C331.257 209.81 331.275 209.83 331.288 209.853C331.301 209.876 331.31 209.902 331.314 209.928C331.317 209.954 331.315 209.981 331.308 210.007C331.302 210.033 331.29 210.057 331.274 210.078C331.257 210.099 331.237 210.116 331.214 210.13C331.191 210.143 331.166 210.152 331.14 210.155C330.86 210.189 330.627 210.155 330.448 210.053Z" fill="#2B4C54"/>
<path d="M326.881 211.047C326.881 211.047 328.364 213.104 331.208 213.347C331.182 214.574 327.128 215.477 326.881 211.047Z" fill="#FCFAF7"/>
<path d="M330.235 205.928C329.922 206.475 329.363 206.746 328.989 206.53C328.615 206.316 328.565 205.697 328.879 205.15C329.192 204.603 329.752 204.333 330.126 204.548C330.5 204.762 330.548 205.381 330.235 205.928ZM336.338 209.427C336.025 209.974 335.465 210.245 335.092 210.029C334.718 209.815 334.667 209.196 334.982 208.649C335.295 208.102 335.853 207.831 336.229 208.047C336.602 208.261 336.651 208.88 336.338 209.427Z" fill="#2B4C54"/>
<path opacity="0.05" d="M328.052 215.028C327.867 214.922 327.762 214.825 327.752 214.814C327.742 214.805 327.734 214.794 327.729 214.782C327.723 214.77 327.72 214.757 327.72 214.743C327.719 214.73 327.721 214.717 327.726 214.705C327.731 214.692 327.738 214.681 327.747 214.671C327.756 214.661 327.767 214.654 327.779 214.648C327.791 214.643 327.804 214.64 327.817 214.639C327.831 214.639 327.844 214.641 327.856 214.646C327.869 214.65 327.88 214.657 327.89 214.666C327.896 214.673 328.569 215.287 329.615 215.081C329.67 215.072 329.723 215.107 329.734 215.162C329.744 215.217 329.708 215.27 329.653 215.281C328.926 215.422 328.37 215.211 328.052 215.028ZM343.283 213.449C343.283 213.449 344.584 213.554 344.371 214.393C344.157 215.232 342.465 216.691 341.24 216.548C341.24 216.548 344.019 215.846 344.035 214.466C344.05 213.089 343.055 213.986 343.283 213.449Z" fill="#33133F"/>
<path d="M342.265 202.455C342.265 202.455 338.492 204.756 336.593 203.476C334.695 202.196 334.721 201.722 334.721 201.722C334.721 201.722 332.564 202.823 329.712 200.997C326.861 199.172 327.776 197.021 327.776 197.021C327.776 197.021 325.991 195.09 328.031 193.016C330.071 190.941 331.693 192.882 331.693 192.882C331.693 192.882 331.45 190.764 334.49 190.339C337.53 189.913 337.888 194.01 337.888 194.01C337.888 194.01 338.937 193.487 342.379 194.204C345.82 194.922 346.02 199.182 346.02 199.182C346.02 199.182 350.775 200.187 349.39 204.495C349.39 204.495 351.17 207.62 348.621 209.284C348.621 209.284 347.954 215.153 343.771 212.785C343.771 212.785 341.719 214.756 340.118 213.653C338.519 212.549 340.825 210.772 340.989 209.641C341.153 208.51 338.93 206.156 342.265 202.455Z" fill="#2B4C54"/>
<path d="M360.392 262.163C355.066 266.644 345.069 289.022 343.753 288.95C343.245 288.756 342.12 289.095 341.27 289.595C340.421 290.093 337.977 288.932 337.758 289.502C337.539 290.072 338.775 291.127 339.592 291.084C340.41 291.042 340.441 291.776 339.851 292.287C339.754 292.372 339.601 292.483 339.418 292.609C340.258 293.649 341.144 294.652 341.959 295.713C342.602 296.55 343.131 297.493 343.774 298.335C344.659 297.047 345.403 295.509 345.695 294.593C346.172 293.089 346.861 291.825 346.861 291.825C346.861 291.825 360.836 279.162 367.164 270.206C370.991 264.792 366.391 257.116 360.392 262.163Z" fill="#FDAE88"/>
<g opacity="0.2">
<path d="M337.872 289.467C338.024 289.349 338.36 289.445 338.495 289.489C338.495 289.489 338.56 289.771 338.388 289.768C338.218 289.764 337.72 289.586 337.872 289.467Z" fill="white"/>
</g>
<path d="M339.565 291.466L344.806 298.04C344.806 298.04 344.909 299.747 344.114 299.844C343.319 299.942 337.943 293.985 337.791 292.741C337.641 291.498 339.565 291.466 339.565 291.466Z" fill="#2B4C54"/>
<path d="M269.259 88.882L296.227 77.7297L297.83 87.6705L269.259 88.882Z" fill="#EEEDF7"/>
<path d="M275.039 133.467L300.084 139.475L296.079 147.408L275.039 133.467Z" fill="white"/>
<path d="M231.566 48.4818L233.63 26.2959L241.887 29.1155L231.566 48.4818Z" fill="#BDE0FB"/>
<path d="M278.032 53.6863C278.032 55.9313 276.213 57.7508 273.968 57.7508C271.723 57.7508 269.903 55.9313 269.903 53.6863C269.903 51.4413 271.723 49.6218 273.968 49.6218C276.213 49.6218 278.032 51.4413 278.032 53.6863Z" fill="#EEEDF7"/>
<path d="M181.388 79.5827L156.346 73.1865L156.206 83.3052L181.388 79.5827Z" fill="#BDE0FB"/>
<path d="M307.479 215.326C307.479 216.942 306.171 218.251 304.555 218.251C302.939 218.251 301.63 216.942 301.63 215.326C301.63 213.712 302.939 212.402 304.555 212.402C306.169 212.402 307.479 213.712 307.479 215.326Z" fill="#EEEDF7"/>
<path d="M170.012 173.3L141.01 176.531L144.397 186.015L170.012 173.3Z" fill="white"/>
<path d="M184.642 125.073C186.887 125.073 188.706 123.254 188.706 121.009C188.706 118.764 186.887 116.944 184.642 116.944C182.397 116.944 180.578 118.764 180.578 121.009C180.578 123.254 182.397 125.073 184.642 125.073Z" fill="white"/>
<path d="M192.771 57.7508C195.016 57.7508 196.835 55.9311 196.835 53.6863C196.835 51.4416 195.016 49.6218 192.771 49.6218C190.526 49.6218 188.706 51.4416 188.706 53.6863C188.706 55.9311 190.526 57.7508 192.771 57.7508Z" fill="#BDE0FB"/>
</svg>
